<svg xmlns="http://www.w3.org/2000/svg" width="500" height="500" viewBox="0 0 500 500" fill="none"><rect width="500" height="500" fill="white"></rect><path d="M56.0826 350.328C58.1492 352.619 60.126 354.315 62.0129 355.416C63.9896 356.539 65.9214 357.1 67.8083 357.1C69.5829 357.1 71.0542 356.617 72.2223 355.651C73.3903 354.685 73.9744 353.461 73.9744 351.979C73.9744 350.361 73.4914 349.092 72.5255 348.171C71.4922 347.295 69.2122 346.385 65.6856 345.442C60.8785 344.139 57.4753 342.454 55.4761 340.388C53.4545 338.276 52.4437 335.401 52.4437 331.762C52.4437 327.045 54.0273 323.204 57.1946 320.239C60.3169 317.251 64.4052 315.757 69.4593 315.757C72.3121 315.757 74.8954 316.128 77.209 316.869C79.635 317.61 81.9375 318.711 84.1164 320.171L79.9046 329.841C78.422 328.561 76.8496 327.573 75.1874 326.876C73.57 326.225 71.9864 325.899 70.4365 325.899C68.8641 325.899 67.55 326.292 66.4942 327.079C65.4834 327.82 64.978 328.808 64.978 330.044C64.978 331.234 65.416 332.223 66.2921 333.009C67.213 333.75 68.9427 334.458 71.481 335.132C71.5708 335.154 71.6495 335.176 71.7168 335.199C71.7842 335.199 71.8853 335.221 72.0201 335.266C77.5011 336.726 81.1176 338.366 82.8697 340.186C84.0153 341.331 84.9138 342.78 85.5652 344.532C86.1493 346.195 86.4413 348.081 86.4413 350.193C86.4413 355.404 84.7229 359.616 81.2861 362.828C77.8268 365.996 73.2443 367.579 67.5387 367.579C64.0345 367.579 60.9009 367.006 58.138 365.861C55.3975 364.715 52.6907 362.873 50.0177 360.335L56.0826 350.328ZM101.443 366.265V328.595H90.3916V316.937H125.939V328.595H114.887V366.265H101.443ZM145.928 347.834H159.305L154.284 331.56C154.172 331.268 153.959 330.459 153.644 329.134C153.262 327.584 152.914 326.18 152.6 324.922C152.285 326.068 152.016 327.225 151.791 328.393C151.432 329.516 151.128 330.572 150.881 331.56L145.928 347.834ZM127.093 366.265L144.109 316.937H160.956L178.005 366.265H164.628L162.135 357.437H143.03L140.47 366.265H127.093ZM183.101 366.265V316.937H197.152C199.87 316.937 202.161 316.993 204.025 317.105C205.912 317.217 207.462 317.408 208.675 317.678C210.764 318.172 212.629 319.026 214.268 320.239C216.065 321.586 217.424 323.316 218.345 325.428C219.311 327.449 219.794 329.74 219.794 332.301C219.794 336.097 218.851 339.209 216.964 341.635C215.122 344.061 212.393 345.644 208.776 346.385L222.22 366.265H207.024L195.703 346.958V366.265H183.101ZM195.703 340.253H198.196C201.139 340.253 203.262 339.77 204.564 338.804C205.89 337.726 206.552 336.165 206.552 334.121C206.552 331.65 205.935 329.898 204.699 328.864C203.441 327.809 201.341 327.281 198.398 327.281H195.703V340.253ZM234.83 366.265V328.595H223.778V316.937H259.326V328.595H248.274V366.265H234.83Z" fill="#FF5C00"></path><path d="M321.738 332.03C320.493 329.632 318.764 327.834 316.551 326.635C314.338 325.39 311.778 324.768 308.874 324.768C305.692 324.768 302.857 325.482 300.367 326.912C297.877 328.341 295.917 330.37 294.488 332.998C293.105 335.626 292.413 338.669 292.413 342.127C292.413 345.586 293.105 348.652 294.488 351.326C295.917 353.954 297.877 355.983 300.367 357.412C302.857 358.842 305.692 359.556 308.874 359.556C313.162 359.556 316.643 358.358 319.317 355.96C321.991 353.562 323.628 350.312 324.228 346.208H306.176V339.914H332.666V346.07C332.158 349.804 330.821 353.24 328.654 356.375C326.533 359.51 323.744 362.023 320.285 363.914C316.873 365.758 313.07 366.68 308.874 366.68C304.355 366.68 300.228 365.643 296.494 363.568C292.759 361.447 289.785 358.519 287.572 354.784C285.405 351.049 284.321 346.831 284.321 342.127C284.321 337.424 285.405 333.206 287.572 329.471C289.785 325.736 292.759 322.831 296.494 320.756C300.274 318.635 304.401 317.575 308.874 317.575C313.992 317.575 318.533 318.843 322.499 321.379C326.51 323.869 329.415 327.419 331.213 332.03H321.738ZM348.672 359.902H364.925V366.265H340.788V318.197H348.672V359.902ZM379.68 318.197V348.836C379.68 352.479 380.625 355.222 382.516 357.067C384.452 358.911 387.127 359.833 390.539 359.833C393.997 359.833 396.671 358.911 398.562 357.067C400.498 355.222 401.466 352.479 401.466 348.836V318.197H409.351V348.698C409.351 352.617 408.498 355.937 406.792 358.657C405.086 361.378 402.804 363.406 399.945 364.744C397.086 366.081 393.928 366.749 390.47 366.749C387.011 366.749 383.853 366.081 380.994 364.744C378.182 363.406 375.945 361.378 374.286 358.657C372.626 355.937 371.796 352.617 371.796 348.698V318.197H379.68ZM427.847 324.56V338.669H444.446V345.101H427.847V359.833H446.521V366.265H419.962V318.128H446.521V324.56H427.847Z" fill="#1E1E1E"></path><path d="M249.525 106.096C216.696 106.096 188.665 126.664 177.603 155.629C187.954 158.205 197.416 161.359 205.723 164.958C212.431 147.277 229.534 134.705 249.525 134.705C275.335 134.705 296.347 155.717 296.347 181.528C296.347 186.325 295.637 190.945 294.26 195.299C303.055 191.789 313.14 189.124 325.09 187.169L326.245 186.992C326.333 185.703 326.378 184.371 326.422 183.082V183.038C326.422 140.525 291.994 106.096 249.525 106.096Z" fill="#1E1E1E"></path><path d="M173.205 190.501C173.161 190.146 173.116 189.746 173.072 189.39C173.028 189.079 172.983 188.768 172.983 188.457C172.939 188.058 172.894 187.702 172.894 187.302C172.85 186.947 172.85 186.636 172.805 186.281C172.805 186.192 172.805 186.059 172.761 185.97C172.717 185.659 172.717 185.348 172.717 185.037C172.717 184.948 172.717 184.815 172.717 184.726C172.717 184.459 172.672 184.193 172.672 183.882C172.628 183.038 172.628 182.194 172.628 181.35C172.628 181.305 172.628 181.261 172.628 181.216C172.628 180.728 172.628 180.239 172.628 179.75C172.628 179.75 172.628 179.75 172.628 179.706C172.761 173.576 173.605 167.623 175.115 161.937C178.047 167.179 185.333 179.573 195.95 193.166C189.82 191.167 179.736 188.502 173.205 190.501Z" fill="#FF5C00"></path><path d="M197.994 190.546C187.598 177.174 180.491 165.136 177.781 160.205C185.91 162.293 193.551 164.736 200.659 167.579C196.927 173.221 197.283 183.794 197.994 190.546Z" fill="#FF5C00"></path><path d="M201.858 195.388C200.748 188.947 199.371 174.154 203.635 168.867C203.857 168.956 204.124 169.045 204.346 169.178C211.498 172.288 218.028 175.886 223.937 179.973C216.029 188.191 216.873 204.673 217.851 212.713C211.987 207.116 206.612 201.163 201.858 195.388Z" fill="#FF5C00"></path><path d="M238.774 229.327C232.688 225.462 226.913 220.976 221.538 216.133C220.872 212.269 217.54 190.412 226.514 181.794C232.777 186.458 238.241 191.789 242.817 197.786C237.664 210.714 238.197 223.73 238.774 229.327Z" fill="#FF5C00"></path><path d="M258.276 238.746C252.457 236.791 246.86 234.17 241.529 231.016C241.085 227.773 239.619 214.002 244.594 200.275C250.147 208.227 254.145 217.334 256.5 227.818C257.299 231.327 257.877 234.97 258.276 238.746Z" fill="#FF5C00"></path><path d="M177.914 208.982C177.692 208.449 177.514 207.916 177.292 207.427C176.981 206.627 176.715 205.828 176.448 205.028C176.27 204.584 176.137 204.095 176.004 203.606C175.959 203.473 175.915 203.384 175.871 203.251C175.693 202.674 175.515 202.14 175.382 201.563C175.249 201.03 175.071 200.497 174.938 199.964C174.849 199.608 174.76 199.253 174.671 198.898C174.627 198.809 174.627 198.675 174.582 198.542C174.493 198.142 174.405 197.743 174.316 197.343C174.227 196.987 174.138 196.588 174.094 196.232C173.916 195.388 173.738 194.5 173.605 193.611C180.269 191.168 194.306 195.699 199.726 197.92C204.257 203.384 209.544 209.204 215.452 214.846C211.232 213.424 205.501 211.825 198.704 210.625C192.885 209.604 185.733 208.848 177.914 208.982Z" fill="#FF5C00"></path><path d="M269.782 233.77C266.14 235.769 262.586 237.502 259.121 238.79C260.142 234.17 261.697 229.95 263.741 226.129C266.628 220.621 270.449 215.867 275.069 211.78C275.335 220.976 271.115 230.882 269.782 233.77Z" fill="#FF5C00"></path><path d="M291.061 219.466L291.283 219.555C285.508 223.908 279.422 228.128 273.425 231.682C275.424 226.707 278.267 217.911 277.468 209.781C281.466 206.627 285.997 203.873 291.017 201.519C293.505 212.847 291.15 219.244 291.061 219.466Z" fill="#FF5C00"></path><path d="M309.319 195.121C310.163 197.653 309.097 203.162 308.431 205.649C304.388 209.159 299.768 212.979 294.926 216.8C295.459 213.379 295.726 207.782 293.949 200.23C299.102 198.009 304.744 196.187 310.741 194.632L309.319 195.121Z" fill="#FF5C00"></path><path d="M312.384 202.185C312.784 199.564 313.051 196.41 312.34 194.233C315.894 193.344 319.625 192.589 323.446 191.923C321.313 194.011 317.449 197.698 312.384 202.185Z" fill="#FF5C00"></path><path d="M313.54 228.039C313.495 229.016 313.495 229.994 313.584 230.971C313.584 231.149 313.628 231.371 313.628 231.549C313.806 233.192 313.895 234.792 313.984 236.346C314.295 243.188 314.428 250.695 310.741 256.737C308.342 260.735 303.411 264.467 298.48 263.845C293.727 263.223 290.084 259.536 285.02 259.713C280.799 259.846 277.823 262.867 276.89 265.933C274.847 272.33 276.357 276.95 270.582 281.481C266.406 284.768 261.12 286.723 255.789 286.767C247.57 286.856 238.242 282.236 234.954 274.373C232.555 268.598 232.111 261.179 224.826 259.536C219.717 258.381 214.741 260.957 209.544 261.357C194.262 262.512 187.51 248.785 188.887 235.636C188.887 235.591 188.887 235.547 188.887 235.502V235.458C189.02 234.436 189.02 233.37 188.931 232.348C188.798 230.527 188.354 228.794 187.643 227.151C187.243 226.218 186.755 225.374 186.177 224.53C185.511 223.552 184.844 222.531 184.178 221.509C183.867 221.02 183.6 220.532 183.289 220.043C182.979 219.554 182.712 219.066 182.445 218.577L182.401 218.533C182.09 217.999 181.824 217.511 181.557 216.978C181.29 216.489 181.024 216 180.802 215.512C180.491 214.89 180.18 214.268 179.869 213.601C179.647 213.113 179.425 212.669 179.203 212.18C202.036 212.091 220.472 220.132 221.894 220.754C232.6 229.905 245.038 237.99 258.632 242.255L258.81 241.633L259.032 242.21C269.649 238.345 281.466 230.882 292.216 222.842C293.904 222.664 304.522 221.553 314.384 223.108C313.939 224.707 313.628 226.351 313.54 228.039Z" fill="#FF5C00"></path><path d="M321.447 208.848C319.981 212.802 318.16 216.534 316.072 220.132C309.097 218.888 301.767 218.977 296.97 219.243C301.901 215.423 306.521 211.558 310.563 208.004C311.985 207.915 316.116 207.604 321.447 208.848Z" fill="#FF5C00"></path><path d="M325.356 194.544C324.69 198.409 323.757 202.185 322.513 205.872C319.314 205.117 316.516 204.85 314.339 204.761C319.226 200.363 323.09 196.721 325.356 194.544Z" fill="#FF5C00"></path></svg>