<svg xmlns="http://www.w3.org/2000/svg" width="500" height="500" viewBox="0 0 500 500" fill="none"><rect width="500" height="500" fill="white"></rect><path d="M190.743 294.709C206.543 306.381 225.669 312.678 245.312 312.676C297.461 312.676 339.739 268.906 339.739 214.914C339.739 176.107 317.905 142.547 286.267 126.808C291.344 133.728 302.459 154.714 284.153 188.998C277.447 201.549 295.403 226.447 292.068 227.442C287.963 228.652 282.705 226.696 281.801 228.302C279.539 232.225 281.428 232.824 282.671 236.511C283.237 238.195 280.467 237.913 278.488 237.517C277.809 237.381 277.267 238.003 277.617 238.512L279.641 241.452C279.806 241.723 279.896 242.033 279.903 242.35C279.91 242.668 279.834 242.981 279.682 243.259C279.529 243.538 279.306 243.771 279.035 243.936C278.764 244.101 278.454 244.192 278.137 244.2L276.633 244.426C276.633 244.426 294.25 281.966 243.051 267.47C202.22 255.869 219.486 274.446 190.743 294.709Z" fill="#A56565"></path><path d="M163.345 243.815C165.17 257.979 170.256 271.525 178.202 283.391C178.734 262.156 185.654 240.423 201.133 225.464C213.628 213.376 230.634 206.524 243.581 194.934C255.159 184.531 263.007 170.669 267.903 156.127C271.872 144.334 274.009 131.806 272.595 119.469C272.066 114.914 271.046 110.429 269.554 106.093C264.616 91.8207 255.099 79.5809 242.484 71.2778C242.825 82.92 241.205 94.5365 237.69 105.641C234.219 116.656 228.962 127.027 222.131 136.34C209.342 153.73 191.375 167.141 179.05 184.848C166.103 203.437 160.97 223.745 163.345 243.815Z" fill="#A56565"></path><path d="M222.775 117.988C222.775 117.988 207.442 92.9536 210.552 80.199C210.552 80.199 204.062 94.5479 216.206 117.705L216.884 118.96L217.325 119.774C216.528 119.567 215.743 119.318 214.973 119.028C210.47 117.398 206.323 114.914 202.761 111.712C194.846 104.487 188.412 91.3592 197.594 68.4394C210.134 37.1296 204.898 31.1255 204.898 31.1255C204.898 31.1255 254.153 58.5569 222.775 117.988Z" fill="#A56565"></path><path d="M201.959 114.132C205.519 117.342 209.665 119.834 214.17 121.47C195.706 122.409 189.17 131.477 189.17 131.477C196.135 124.863 217.608 125.473 217.608 125.473C191.318 167.016 155.995 145.826 155.995 145.826C155.995 145.826 161.648 146.957 177.003 127.61C186.162 115.952 194.971 113.386 201.959 114.132Z" fill="#A56565"></path><path d="M132.633 389.388C132.633 397.763 129.11 404.963 122.062 410.989C115.117 416.913 106.691 419.875 96.784 419.875H79.319V326.575H96.784C102.708 326.575 107.866 328.26 112.257 331.631C116.649 334.899 118.845 338.78 118.845 343.274C118.845 346.951 117.415 350.219 114.555 353.079C111.696 355.939 108.019 357.93 103.525 359.054C111.9 360.484 118.845 364.058 124.36 369.778C129.876 375.395 132.633 381.932 132.633 389.388ZM112.104 343.274C112.104 339.291 110.419 335.767 107.049 332.703C103.78 329.639 100.359 328.107 96.784 328.107H85.9066V358.594H96.784C100.972 358.594 104.546 357.113 107.508 354.151C110.572 351.087 112.104 347.461 112.104 343.274ZM125.892 389.388C125.892 381.421 123.033 374.578 117.313 368.859C111.696 363.139 104.853 360.279 96.784 360.279H85.9066V418.343H96.784C104.853 418.343 111.696 415.534 117.313 409.917C123.033 404.197 125.892 397.354 125.892 389.388ZM157.658 361.045C157.658 363.701 156.279 365.029 153.521 365.029C150.764 365.029 149.385 363.701 149.385 361.045C149.385 360.228 149.691 359.411 150.304 358.594C148.261 359.411 146.985 361.096 146.474 363.65V419.875H139.886V358.594H146.474V360.126C148.006 357.981 150.355 356.909 153.521 356.909C156.279 356.909 157.658 358.288 157.658 361.045ZM188.358 407.925C188.358 411.602 187.03 414.768 184.375 417.424C181.822 420.079 178.706 421.407 175.03 421.407C171.353 421.407 168.187 420.079 165.531 417.424C162.876 414.768 161.548 411.602 161.548 407.925V358.594H162.927V407.925C162.927 411.194 164.101 414.053 166.45 416.505C168.799 418.854 171.659 420.028 175.03 420.028C176.766 420.028 178.298 418.854 179.626 416.505C180.953 414.053 181.617 411.194 181.617 407.925V358.594H188.358V407.925ZM244.096 419.875C244.096 430.293 240.419 439.127 233.066 446.379C225.712 453.733 216.826 457.41 206.408 457.41C196.093 457.41 187.258 453.733 179.904 446.379C172.551 439.127 168.874 430.293 168.874 419.875C168.874 414.564 169.895 409.61 171.938 405.014L173.164 405.474C171.223 410.172 170.253 414.973 170.253 419.875C170.253 429.884 173.827 438.412 180.977 445.46C188.024 452.609 196.501 456.184 206.408 456.184C214.988 456.184 222.29 452.609 228.316 445.46C234.342 438.412 237.355 429.884 237.355 419.875C237.355 402.614 228.674 392.35 211.311 389.081C206.102 388.06 201.966 386.119 198.902 383.26C195.837 380.298 194.408 376.672 194.612 372.382C194.816 368.093 196.348 364.467 199.208 361.505C202.068 358.543 205.591 357.062 209.779 357.062C213.966 357.062 217.541 358.594 220.503 361.658C223.465 364.62 224.946 368.195 224.946 372.382C224.946 374.834 224.384 377.183 223.261 379.43L222.495 378.97C223.516 377.029 224.027 374.834 224.027 372.382C224.027 368.501 222.648 365.182 219.89 362.424C217.133 359.564 213.864 358.135 210.085 358.135C207.532 358.135 205.336 359.258 203.498 361.505C201.659 363.752 200.74 366.816 200.74 370.697C200.74 377.54 204.519 381.677 212.077 383.107C221.78 384.945 229.44 388.928 235.057 395.056C241.083 401.491 244.096 409.764 244.096 419.875ZM282.465 419.875H276.03V370.084C276.03 366.714 275.315 363.854 273.886 361.505C272.558 359.156 271.026 357.981 269.29 357.981C266.225 357.981 263.57 358.952 261.323 360.892C259.076 362.833 257.697 365.335 257.187 368.399V419.875H250.599V326.728H257.187V364.109C259.74 359.105 263.774 356.603 269.29 356.603C272.864 356.603 275.928 357.981 278.482 360.739C281.137 363.395 282.465 366.51 282.465 370.084V419.875ZM350.483 403.942C347.725 409.355 343.742 413.747 338.533 417.117C333.324 420.386 327.554 422.02 321.221 422.02C312.234 422.02 304.522 418.803 298.088 412.368C291.653 405.934 288.436 398.222 288.436 389.235C288.436 380.145 291.653 372.433 298.088 366.101C304.522 359.667 312.234 356.449 321.221 356.449C327.452 356.449 333.12 358.032 338.227 361.199C343.436 364.365 347.419 368.603 350.177 373.914L295.79 396.129C297.118 403.176 300.131 409.049 304.829 413.747C309.629 418.343 315.093 420.641 321.221 420.641C326.532 420.641 331.282 418.956 335.469 415.585C339.759 412.113 342.976 407.568 345.121 401.95L350.483 403.942ZM344.355 374.527C342.21 369.42 339.044 365.386 334.856 362.424C330.771 359.36 326.226 357.828 321.221 357.828C314.072 357.828 307.944 360.892 302.837 367.02C297.73 373.148 295.177 380.553 295.177 389.235C295.177 390.46 295.279 392.299 295.483 394.75L344.355 374.527ZM421.905 389.235C421.905 398.222 418.688 405.934 412.253 412.368C405.921 418.803 398.21 422.02 389.12 422.02C380.132 422.02 372.421 418.803 365.986 412.368C359.552 405.934 356.335 398.222 356.335 389.235C356.335 380.145 359.552 372.433 365.986 366.101C372.421 359.667 380.132 356.449 389.12 356.449C400.253 356.449 408.985 360.79 415.317 369.472V326.575H421.905V389.235ZM415.317 389.235C415.317 380.553 412.764 373.148 407.657 367.02C402.551 360.892 396.371 357.828 389.12 357.828C381.97 357.828 375.842 360.892 370.736 367.02C365.629 373.148 363.075 380.553 363.075 389.235C363.075 397.916 365.629 405.321 370.736 411.449C375.842 417.577 381.97 420.641 389.12 420.641C396.371 420.641 402.551 417.577 407.657 411.449C412.764 405.321 415.317 397.916 415.317 389.235Z" fill="#A56565"></path></svg>