<svg xmlns="http://www.w3.org/2000/svg" width="500" height="500" viewBox="0 0 500 500" fill="none"><rect width="500" height="500" fill="white"></rect><path d="M206.054 144.946L205.825 145.632L216.575 148.376L216.689 147.69L206.054 144.946Z" fill="#3658F1"></path><path d="M273.982 109.963C266.091 108.248 258.2 107.448 250.424 107.333L251.682 102.417L235.786 98.416L233.156 108.705C230.64 109.048 228.239 109.506 225.837 110.077L225.037 113.05L219.548 111.678C217.832 112.135 216.117 112.707 214.401 113.278L193.474 108.019L189.014 125.511C186.498 127.112 184.097 128.826 181.695 130.656L179.179 140.373L172.203 138.658C170.031 140.716 167.972 142.888 166.028 145.061L156.994 142.774L151.162 166.211C146.13 175.357 142.356 185.417 140.069 196.164C128.405 249.896 157.108 302.829 205.939 323.636C212.343 326.38 219.204 328.552 226.295 330.152C227.781 330.495 229.268 330.724 230.755 331.067C232.356 331.296 233.842 331.639 235.443 331.753C243.677 310.832 236.816 287.166 234.185 279.735C205.825 275.848 159.281 258.242 180.208 185.074C180.323 185.417 180.437 185.875 180.666 186.56C182.496 190.676 190.272 200.851 223.093 216.171C265.977 236.177 254.312 279.049 253.855 280.65C243.677 252.297 214.401 228.632 212.572 227.146C213.487 228.06 220.92 236.063 228.81 247.267C232.584 253.555 239.903 266.131 246.193 280.764C252.597 295.741 258.315 314.033 259.115 332.439C307.374 328.552 349.343 293.797 360.207 244.066C373.358 183.131 334.82 123.225 273.982 109.963ZM211.199 163.924L205.825 162.552L207.197 157.179L212.572 158.551L211.199 163.924ZM216.803 147.576L216.689 148.262L205.939 145.518L206.168 144.832L208.684 134.771L219.433 137.515L216.803 147.576ZM254.084 132.028L261.745 133.971L259.801 141.631L252.139 139.687L254.084 132.028ZM242.762 136.143L237.159 134.771L238.531 129.169L244.134 130.541L242.762 136.143ZM262.546 281.107C262.546 281.107 265.634 242.122 283.816 216.742C282.787 218 271.008 232.748 260.259 255.498C255.456 234.806 245.164 225.774 245.164 225.774C245.164 225.774 245.278 225.66 245.392 225.431C246.422 223.716 250.881 216.742 258.086 209.54C266.663 200.737 279.585 194.678 293.766 190.448C303.143 187.589 306.345 183.131 309.204 179.815C311.148 184.274 312.063 191.819 312.063 192.391C323.156 266.016 262.546 281.107 262.546 281.107Z" fill="#3658F1"></path><path d="M197.134 84.0159L175.518 78.5317L170.033 100.141L191.648 105.625L197.134 84.0159Z" fill="#3658F1"></path><path d="M175.598 113.865L163.516 110.799L160.45 122.878L172.532 125.944L175.598 113.865Z" fill="#3658F1"></path><path d="M228.752 86.4983L212.901 82.4766L208.878 98.3231L224.729 102.345L228.752 86.4983Z" fill="#3658F1"></path><path d="M175.223 64.4429L162.586 61.2368L159.379 73.8697L172.016 77.0759L175.223 64.4429Z" fill="#3658F1"></path><path d="M216.803 147.576L216.575 148.262L205.939 145.632L206.054 144.946L216.803 147.576Z" fill="#3658F1"></path><path d="M77.9067 378.536C82.1698 378.536 85.651 379.658 88.3502 381.903C91.0745 384.123 92.4367 387.819 92.4367 392.99V420.764H81.3878V395.677C81.3878 393.507 81.0977 391.842 80.5175 390.682C79.4581 388.563 77.44 387.503 74.4634 387.503C70.8056 387.503 68.2957 389.055 66.9335 392.158C66.2271 393.797 65.874 395.891 65.874 398.439V420.764H55.1278V379.595H65.5334V385.612C66.9209 383.493 68.2326 381.966 69.4687 381.033C71.6885 379.368 74.5012 378.536 77.9067 378.536ZM125.555 400.709C124.874 401.138 124.18 401.491 123.474 401.769C122.792 402.021 121.846 402.261 120.636 402.488L118.214 402.942C115.944 403.345 114.317 403.837 113.333 404.417C111.668 405.401 110.835 406.927 110.835 408.996C110.835 410.837 111.34 412.174 112.349 413.007C113.383 413.814 114.632 414.218 116.095 414.218C118.416 414.218 120.547 413.536 122.49 412.174C124.457 410.812 125.479 408.327 125.555 404.72V400.709ZM119.009 395.677C121.001 395.424 122.427 395.109 123.284 394.731C124.823 394.075 125.592 393.053 125.592 391.666C125.592 389.976 125 388.815 123.814 388.185C122.654 387.529 120.938 387.201 118.668 387.201C116.12 387.201 114.317 387.831 113.257 389.093C112.5 390.026 111.996 391.287 111.744 392.877H101.338C101.565 389.269 102.574 386.305 104.365 383.984C107.216 380.352 112.109 378.536 119.046 378.536C123.562 378.536 127.573 379.431 131.079 381.222C134.585 383.013 136.339 386.394 136.339 391.363V410.282C136.339 411.594 136.364 413.183 136.414 415.05C136.49 416.463 136.704 417.421 137.058 417.926C137.411 418.43 137.941 418.847 138.647 419.174V420.764H126.917C126.589 419.931 126.362 419.149 126.236 418.418C126.11 417.686 126.009 416.854 125.933 415.92C124.445 417.535 122.729 418.91 120.787 420.045C118.466 421.382 115.843 422.05 112.917 422.05C109.183 422.05 106.093 420.991 103.646 418.872C101.224 416.728 100.014 413.7 100.014 409.79C100.014 404.72 101.969 401.05 105.879 398.779C108.023 397.543 111.176 396.66 115.338 396.131L119.009 395.677ZM142.099 387.579V379.898H147.851V368.395H158.521V379.898H165.219V387.579H158.521V409.374C158.521 411.064 158.736 412.124 159.164 412.553C159.593 412.956 160.905 413.158 163.1 413.158C163.428 413.158 163.768 413.158 164.121 413.158C164.5 413.133 164.866 413.108 165.219 413.082V421.142L160.11 421.331C155.015 421.508 151.534 420.625 149.667 418.683C148.456 417.446 147.851 415.542 147.851 412.969V387.579H142.099ZM183.277 379.52V404.38C183.277 406.726 183.554 408.491 184.109 409.677C185.093 411.771 187.023 412.818 189.899 412.818C193.582 412.818 196.104 411.329 197.466 408.353C198.173 406.738 198.526 404.607 198.526 401.958V379.52H209.461V420.764H198.98V414.937C198.879 415.063 198.627 415.441 198.223 416.072C197.819 416.702 197.34 417.257 196.785 417.737C195.095 419.25 193.455 420.284 191.866 420.839C190.302 421.394 188.461 421.672 186.342 421.672C180.237 421.672 176.125 419.477 174.006 415.088C172.821 412.666 172.228 409.097 172.228 404.38V379.52H183.277ZM242.693 378.536C242.894 378.536 243.058 378.548 243.184 378.574C243.336 378.574 243.651 378.586 244.13 378.611V389.66C243.449 389.585 242.844 389.534 242.314 389.509C241.784 389.484 241.356 389.471 241.028 389.471C236.689 389.471 233.775 390.884 232.287 393.709C231.455 395.298 231.038 397.745 231.038 401.05V420.764H220.179V379.52H230.471V386.709C232.136 383.959 233.586 382.08 234.822 381.071C236.84 379.381 239.464 378.536 242.693 378.536ZM267.145 387.314C264.648 387.314 262.706 388.096 261.318 389.66C259.956 391.224 259.098 393.343 258.745 396.017H275.508C275.331 393.167 274.461 391.01 272.897 389.547C271.358 388.058 269.441 387.314 267.145 387.314ZM267.145 378.422C270.576 378.422 273.666 379.065 276.416 380.352C279.166 381.638 281.436 383.669 283.227 386.444C284.841 388.891 285.888 391.729 286.368 394.958C286.645 396.85 286.759 399.574 286.708 403.131H258.48C258.632 407.268 259.931 410.169 262.378 411.834C263.866 412.868 265.657 413.385 267.751 413.385C269.971 413.385 271.774 412.754 273.162 411.493C273.919 410.812 274.587 409.866 275.167 408.655H286.178C285.901 411.102 284.627 413.587 282.357 416.11C278.825 420.12 273.881 422.126 267.524 422.126C262.277 422.126 257.648 420.436 253.637 417.055C249.626 413.675 247.621 408.176 247.621 400.558C247.621 393.419 249.424 387.945 253.032 384.136C256.664 380.327 261.369 378.422 267.145 378.422ZM290.16 387.579V379.898H295.912V368.395H306.582V379.898H313.28V387.579H306.582V409.374C306.582 411.064 306.797 412.124 307.226 412.553C307.655 412.956 308.966 413.158 311.161 413.158C311.489 413.158 311.829 413.158 312.183 413.158C312.561 413.133 312.927 413.108 313.28 413.082V421.142L308.172 421.331C303.076 421.508 299.595 420.625 297.728 418.683C296.517 417.446 295.912 415.542 295.912 412.969V387.579H290.16ZM336.862 387.314C334.365 387.314 332.423 388.096 331.035 389.66C329.673 391.224 328.815 393.343 328.462 396.017H345.225C345.048 393.167 344.178 391.01 342.614 389.547C341.075 388.058 339.158 387.314 336.862 387.314ZM336.862 378.422C340.293 378.422 343.383 379.065 346.133 380.352C348.883 381.638 351.153 383.669 352.944 386.444C354.558 388.891 355.605 391.729 356.084 394.958C356.362 396.85 356.475 399.574 356.425 403.131H328.197C328.349 407.268 329.648 410.169 332.095 411.834C333.583 412.868 335.374 413.385 337.468 413.385C339.688 413.385 341.491 412.754 342.879 411.493C343.636 410.812 344.304 409.866 344.884 408.655H355.895C355.618 411.102 354.344 413.587 352.074 416.11C348.542 420.12 343.598 422.126 337.241 422.126C331.994 422.126 327.365 420.436 323.354 417.055C319.343 413.675 317.338 408.176 317.338 400.558C317.338 393.419 319.141 387.945 322.749 384.136C326.381 380.327 331.086 378.422 336.862 378.422ZM388.748 394.314C388.547 392.776 388.029 391.388 387.197 390.152C385.986 388.487 384.107 387.655 381.559 387.655C377.926 387.655 375.442 389.458 374.105 393.066C373.398 394.983 373.045 397.531 373.045 400.709C373.045 403.736 373.398 406.171 374.105 408.012C375.391 411.443 377.813 413.158 381.37 413.158C383.892 413.158 385.683 412.477 386.743 411.115C387.802 409.753 388.446 407.987 388.673 405.817H399.684C399.431 409.097 398.246 412.2 396.127 415.126C392.747 419.843 387.739 422.202 381.105 422.202C374.471 422.202 369.589 420.234 366.461 416.299C363.333 412.363 361.769 407.255 361.769 400.974C361.769 393.886 363.497 388.374 366.953 384.439C370.409 380.503 375.177 378.536 381.256 378.536C386.428 378.536 390.653 379.696 393.932 382.017C397.237 384.338 399.192 388.437 399.797 394.314H388.748ZM430.38 378.46C432.928 378.46 435.236 378.901 437.304 379.784C439.398 380.667 441.114 382.017 442.451 383.833C443.586 385.372 444.279 386.961 444.532 388.601C444.784 390.215 444.91 392.864 444.91 396.547V420.764H433.899V395.677C433.899 393.457 433.521 391.666 432.764 390.304C431.78 388.386 429.913 387.428 427.164 387.428C424.313 387.428 422.144 388.386 420.655 390.304C419.192 392.195 418.461 394.907 418.461 398.439V420.764H407.715V365.179H418.461V384.893C420.025 382.496 421.828 380.831 423.872 379.898C425.94 378.939 428.11 378.46 430.38 378.46Z" fill="#2A2A2A"></path></svg>