<svg xmlns="http://www.w3.org/2000/svg" width="501" height="500" viewBox="0 0 501 500" fill="none"><rect width="500" height="500" transform="translate(0.877136)" fill="white"></rect><path d="M240.555 188.82L240.22 117.07L156.889 261.451H198.722L240.555 188.82Z" fill="black"></path><path d="M240.219 117.069V136.957L188.023 207.49L240.219 117.069Z" fill="#4D443E"></path><path d="M161.211 253.646H227.842L218.569 269.758H157.141V260.695L161.211 253.646Z" fill="black"></path><path d="M303.158 289.94L240.304 253.31H259.898L304.92 274.583L303.158 289.94Z" fill="black"></path><path d="M240.261 253.31V261.324L303.158 297.912V288.261L240.261 253.31Z" fill="#C18617"></path><path d="M344.865 297.912H303.158L238.206 184.707L240.22 117.069L344.865 297.912Z" fill="#C18617"></path><path d="M240.22 117.069L239.716 137.629L298.291 217.603L240.22 117.069Z" fill="#4D443E"></path><path d="M46.733 348.686H36.3978L34.7411 353.578H27.6802L37.6997 325.886H45.5101L55.5297 353.578H48.3898L46.733 348.686ZM44.9973 343.48L41.5655 333.342L38.1731 343.48H44.9973ZM83.3518 353.578H76.6063L65.3245 336.497V353.578H58.579V325.886H65.3245L76.6063 343.046V325.886H83.3518V353.578ZM105.48 348.686H95.1444L93.4876 353.578H86.4267L96.4462 325.886H104.257L114.276 353.578H107.136L105.48 348.686ZM103.744 343.48L100.312 333.342L96.9194 343.48H103.744ZM142.098 353.578H135.353L124.071 336.497V353.578H117.326V325.886H124.071L135.353 343.046V325.886H142.098V353.578ZM157.362 325.886C160.282 325.886 162.832 326.465 165.016 327.622C167.197 328.779 168.881 330.409 170.064 332.513C171.273 334.591 171.879 336.997 171.879 339.732C171.879 342.441 171.273 344.847 170.064 346.951C168.881 349.055 167.184 350.685 164.975 351.842C162.793 352.999 160.254 353.578 157.362 353.578H146.989V325.886H157.362ZM156.928 347.74C159.478 347.74 161.465 347.043 162.884 345.649C164.305 344.255 165.016 342.283 165.016 339.732C165.016 337.181 164.305 335.196 162.884 333.776C161.465 332.356 159.478 331.645 156.928 331.645H153.732V347.74H156.928ZM192.886 348.686H182.551L180.895 353.578H173.834L183.853 325.886H191.664L201.683 353.578H194.543L192.886 348.686ZM191.151 343.48L187.72 333.342L184.326 343.48H191.151ZM230.33 348.686H219.995L218.338 353.578H211.278L221.298 325.886H229.108L239.128 353.578H231.986L230.33 348.686ZM228.594 343.48L225.163 333.342L221.771 343.48H228.594ZM252.552 325.886C255.469 325.886 258.022 326.465 260.203 327.622C262.387 328.779 264.068 330.409 265.252 332.513C266.462 334.591 267.067 336.997 267.067 339.732C267.067 342.441 266.462 344.847 265.252 346.951C264.068 349.055 262.373 350.685 260.165 351.842C257.981 352.999 255.444 353.578 252.552 353.578H242.176V325.886H252.552ZM252.117 347.74C254.668 347.74 256.652 347.043 258.074 345.649C259.492 344.255 260.203 342.283 260.203 339.732C260.203 337.181 259.492 335.196 258.074 333.776C256.652 332.356 254.668 331.645 252.117 331.645H248.922V347.74H252.117ZM277.583 325.886V353.578H270.837V325.886H277.583ZM302.392 325.886V331.29H295.055V353.578H288.309V331.29H280.973V325.886H302.392ZM329.525 325.886L319.939 344.426V353.578H313.193V344.426L303.607 325.886H311.26L316.623 337.484L321.951 325.886H329.525ZM349.48 348.686H339.145L337.488 353.578H330.428L340.446 325.886H348.258L358.276 353.578H351.136L349.48 348.686ZM347.744 343.48L344.313 333.342L340.919 343.48H347.744ZM387.043 325.886V344.742C387.043 347.661 386.214 349.909 384.556 351.487C382.926 353.065 380.718 353.854 377.93 353.854C375.01 353.854 372.67 353.026 370.908 351.369C369.147 349.712 368.265 347.358 368.265 344.308H374.972C374.972 345.465 375.207 346.346 375.68 346.951C376.155 347.529 376.839 347.819 377.733 347.819C378.547 347.819 379.179 347.556 379.625 347.03C380.073 346.504 380.297 345.741 380.297 344.742V325.886H387.043ZM409.729 348.686H399.394L397.737 353.578H390.675L400.695 325.886H408.505L418.525 353.578H411.385L409.729 348.686ZM407.993 343.48L404.56 333.342L401.168 343.48H407.993ZM445.321 325.886L435.735 344.426V353.578H428.991V344.426L419.405 325.886H427.059L432.422 337.484L437.747 325.886H445.321ZM465.278 348.686H454.943L453.287 353.578H446.224L456.244 325.886H464.054L474.074 353.578H466.935L465.278 348.686ZM463.542 343.48L460.109 333.342L456.717 343.48H463.542Z" fill="black"></path><path d="M118.794 382.662L115.065 376.26H112.595V382.662H110.551V367.006H115.605C116.788 367.006 117.784 367.208 118.592 367.612C119.416 368.016 120.03 368.563 120.434 369.252C120.838 369.941 121.041 370.727 121.041 371.61C121.041 372.689 120.726 373.639 120.097 374.463C119.483 375.287 118.555 375.833 117.312 376.103L121.243 382.662H118.794ZM112.595 374.62H115.605C116.713 374.62 117.544 374.351 118.098 373.812C118.652 373.257 118.929 372.524 118.929 371.61C118.929 370.682 118.652 369.963 118.098 369.454C117.559 368.945 116.728 368.69 115.605 368.69H112.595V374.62ZM126.261 368.668V373.901H131.966V375.586H126.261V380.977H132.64V382.662H124.217V366.983H132.64V368.668H126.261ZM148.042 382.662H145.998L137.777 370.195V382.662H135.733V366.983H137.777L145.998 379.427V366.983H148.042V382.662ZM161.163 367.006V368.668H156.895V382.662H154.851V368.668H150.561V367.006H161.163ZM162.916 374.822C162.916 373.295 163.26 371.925 163.949 370.712C164.638 369.484 165.574 368.525 166.757 367.836C167.955 367.148 169.28 366.803 170.733 366.803C172.44 366.803 173.93 367.215 175.203 368.039C176.476 368.862 177.404 370.03 177.988 371.543H175.54C175.105 370.599 174.476 369.873 173.653 369.364C172.844 368.855 171.871 368.6 170.733 368.6C169.639 368.6 168.659 368.855 167.79 369.364C166.921 369.873 166.24 370.599 165.746 371.543C165.252 372.471 165.005 373.565 165.005 374.822C165.005 376.065 165.252 377.159 165.746 378.102C166.24 379.03 166.921 379.749 167.79 380.258C168.659 380.767 169.639 381.022 170.733 381.022C171.871 381.022 172.844 380.775 173.653 380.281C174.476 379.772 175.105 379.045 175.54 378.102H177.988C177.404 379.599 176.476 380.76 175.203 381.584C173.93 382.392 172.44 382.797 170.733 382.797C169.28 382.797 167.955 382.46 166.757 381.786C165.574 381.097 164.638 380.146 163.949 378.933C163.26 377.72 162.916 376.35 162.916 374.822ZM190.285 379.18H183.457L182.199 382.662H180.042L185.703 367.095H188.061L193.699 382.662H191.543L190.285 379.18ZM189.701 377.518L186.871 369.611L184.041 377.518H189.701ZM204.41 382.662L200.681 376.26H198.21V382.662H196.167V367.006H201.22C202.404 367.006 203.399 367.208 204.208 367.612C205.031 368.016 205.646 368.563 206.05 369.252C206.454 369.941 206.656 370.727 206.656 371.61C206.656 372.689 206.342 373.639 205.713 374.463C205.099 375.287 204.17 375.833 202.928 376.103L206.859 382.662H204.41ZM198.21 374.62H201.22C202.329 374.62 203.16 374.351 203.714 373.812C204.268 373.257 204.545 372.524 204.545 371.61C204.545 370.682 204.268 369.963 203.714 369.454C203.175 368.945 202.344 368.69 201.22 368.69H198.21V374.62Z" fill="black"></path><path d="M238.449 367.005V368.668H234.181V382.662H232.137V368.668H227.846V367.005H238.449ZM248.062 382.819C246.609 382.819 245.285 382.482 244.086 381.808C242.888 381.119 241.938 380.168 241.234 378.955C240.544 377.727 240.2 376.35 240.2 374.822C240.2 373.295 240.544 371.925 241.234 370.712C241.938 369.484 242.888 368.533 244.086 367.859C245.285 367.17 246.609 366.826 248.062 366.826C249.53 366.826 250.863 367.17 252.06 367.859C253.257 368.533 254.201 369.476 254.891 370.689C255.579 371.902 255.923 373.28 255.923 374.822C255.923 376.365 255.579 377.742 254.891 378.955C254.201 380.168 253.257 381.119 252.06 381.808C250.863 382.482 249.53 382.819 248.062 382.819ZM248.062 381.044C249.155 381.044 250.137 380.79 251.006 380.281C251.888 379.772 252.576 379.045 253.072 378.102C253.581 377.159 253.834 376.065 253.834 374.822C253.834 373.564 253.581 372.471 253.072 371.543C252.576 370.599 251.895 369.873 251.028 369.364C250.159 368.855 249.171 368.6 248.062 368.6C246.955 368.6 245.966 368.855 245.097 369.364C244.228 369.873 243.54 370.599 243.031 371.543C242.535 372.471 242.289 373.564 242.289 374.822C242.289 376.065 242.535 377.159 243.031 378.102C243.54 379.045 244.228 379.772 245.097 380.281C245.98 380.79 246.969 381.044 248.062 381.044ZM260.621 367.005V376.911C260.621 378.304 260.958 379.337 261.633 380.011C262.321 380.685 263.273 381.022 264.486 381.022C265.683 381.022 266.618 380.685 267.292 380.011C267.983 379.337 268.327 378.304 268.327 376.911V367.005H270.37V376.889C270.37 378.192 270.108 379.292 269.585 380.191C269.06 381.074 268.349 381.733 267.451 382.168C266.566 382.602 265.57 382.819 264.464 382.819C263.355 382.819 262.352 382.602 261.454 382.168C260.569 381.733 259.865 381.074 259.34 380.191C258.831 379.292 258.578 378.192 258.578 376.889V367.005H260.621ZM282.024 382.662L278.295 376.26H275.824V382.662H273.78V367.005H278.834C280.017 367.005 281.013 367.208 281.821 367.612C282.644 368.016 283.26 368.563 283.663 369.252C284.068 369.941 284.269 370.727 284.269 371.61C284.269 372.688 283.955 373.639 283.328 374.463C282.712 375.287 281.784 375.833 280.542 376.103L284.473 382.662H282.024ZM275.824 374.62H278.834C279.942 374.62 280.773 374.351 281.327 373.812C281.882 373.257 282.158 372.524 282.158 371.61C282.158 370.682 281.882 369.963 281.327 369.454C280.789 368.945 279.958 368.69 278.834 368.69H275.824V374.62ZM305.453 382.662L303.407 380.595C302.645 381.389 301.828 381.98 300.959 382.37C300.092 382.744 299.11 382.931 298.017 382.931C296.94 382.931 295.98 382.737 295.143 382.347C294.319 381.958 293.674 381.404 293.21 380.685C292.76 379.966 292.536 379.128 292.536 378.169C292.536 377.076 292.844 376.118 293.457 375.294C294.086 374.455 295.007 373.797 296.22 373.317C295.74 372.748 295.396 372.224 295.186 371.745C294.978 371.266 294.873 370.742 294.873 370.173C294.873 369.514 295.036 368.922 295.367 368.398C295.711 367.859 296.197 367.44 296.826 367.14C297.456 366.841 298.182 366.691 299.006 366.691C299.814 366.691 300.517 366.848 301.117 367.163C301.717 367.477 302.165 367.919 302.466 368.488C302.764 369.042 302.898 369.664 302.869 370.352H300.825C300.841 369.738 300.667 369.259 300.309 368.915C299.949 368.555 299.485 368.376 298.915 368.376C298.318 368.376 297.829 368.548 297.456 368.892C297.096 369.222 296.917 369.648 296.917 370.173C296.917 370.622 297.037 371.056 297.277 371.476C297.53 371.895 297.949 372.411 298.533 373.025L303.206 377.72L303.611 377.091L305.138 374.53H307.338L305.498 377.72C305.242 378.169 304.944 378.641 304.6 379.135L308.125 382.662H305.453ZM298.017 381.179C298.827 381.179 299.551 381.022 300.196 380.708C300.855 380.393 301.477 379.906 302.061 379.247L297.456 374.62C295.539 375.354 294.579 376.514 294.579 378.102C294.579 378.985 294.894 379.719 295.523 380.303C296.168 380.887 296.998 381.179 298.017 381.179ZM325.666 367.005V368.668H321.398V382.662H319.354V368.668H315.064V367.005H325.666ZM336.424 382.662L332.697 376.26H330.226V382.662H328.182V367.005H333.235C334.419 367.005 335.415 367.208 336.223 367.612C337.046 368.016 337.659 368.563 338.065 369.252C338.47 369.941 338.671 370.727 338.671 371.61C338.671 372.688 338.356 373.639 337.727 374.463C337.114 375.287 336.186 375.833 334.942 376.103L338.872 382.662H336.424ZM330.226 374.62H333.235C334.344 374.62 335.175 374.351 335.729 373.812C336.284 373.257 336.56 372.524 336.56 371.61C336.56 370.682 336.284 369.963 335.729 369.454C335.191 368.945 334.358 368.69 333.235 368.69H330.226V374.62ZM351.102 379.18H344.274L343.016 382.662H340.859L346.519 367.095H348.877L354.516 382.662H352.36L351.102 379.18ZM350.518 377.518L347.687 369.611L344.858 377.518H350.518ZM369.92 367.005L364.014 382.662H361.656L355.747 367.005H357.927L362.846 380.505L367.766 367.005H369.92ZM374.206 368.668V373.901H379.911V375.586H374.206V380.977H380.586V382.662H372.163V366.983H380.586V368.668H374.206ZM385.723 380.999H391.204V382.662H383.679V367.005H385.723V380.999Z" fill="black"></path><path d="M217.672 378.221C219.456 378.221 220.902 376.774 220.902 374.99C220.902 373.206 219.456 371.76 217.672 371.76C215.888 371.76 214.441 373.206 214.441 374.99C214.441 376.774 215.888 378.221 217.672 378.221Z" fill="black"></path></svg>