<svg xmlns="http://www.w3.org/2000/svg" width="500" height="500" viewBox="0 0 500 500" fill="none"><rect width="500" height="500" fill="white"></rect><path d="M75.4397 292.787V275.161C75.4399 271.639 76.1596 268.154 77.5547 264.92C78.9497 261.686 80.9907 258.771 83.5524 256.354L92.9519 247.48L139.757 203.367L138.478 202.172L113.759 179.062C111.549 177.006 108.642 175.863 105.624 175.863C102.605 175.863 99.6989 177.006 97.4889 179.062L29.5147 242.606C27.77 244.24 26.5566 246.359 26.032 248.691C25.5074 251.023 25.6959 253.458 26.573 255.681C27.4501 257.904 28.9753 259.812 30.9505 261.157C32.9257 262.502 35.2598 263.223 37.6496 263.225H53.9933C52.418 272.919 53.6183 282.862 57.4553 291.903C61.2924 300.945 67.6096 308.716 75.6769 314.319C83.7442 319.921 93.2322 323.127 103.044 323.565C112.857 324.002 122.592 321.655 131.127 316.793L92.9408 276.285L75.4397 292.787ZM75.1957 228.308H79.8769C87.0763 228.308 92.9186 234.594 92.9186 242.359L92.7707 242.477L92.5932 242.629L86.8174 247.498L86.7916 247.521C82.7241 251.115 77.6546 255.874 75.1846 259.457L75.1957 228.308Z" fill="#A47E3B" stroke="#A47E3B" stroke-width="0.369767" stroke-miterlimit="10"></path><path d="M184.676 255.684C183.822 257.926 182.3 259.852 180.316 261.2C178.332 262.549 175.981 263.255 173.583 263.224H156.721C157.849 270.169 157.558 277.27 155.864 284.099C154.17 290.928 151.11 297.343 146.867 302.955L108.175 261.911L155.087 217.698L165.481 227.416L181.729 242.606C183.501 244.221 184.735 246.341 185.262 248.681C185.789 251.02 185.584 253.465 184.676 255.684Z" fill="#A47E3B" stroke="#A47E3B" stroke-width="0.369767" stroke-miterlimit="10"></path><path d="M221.549 233.17L219.286 235.352C218.453 236.143 218.036 236.863 218.036 237.511C218.041 237.882 218.139 238.246 218.321 238.569C218.629 239.082 218.987 239.564 219.389 240.007L227.306 249.155C227.756 249.708 228.244 250.228 228.767 250.712C229.138 250.991 229.543 251.222 229.972 251.4C230.59 251.626 231.145 251.996 231.592 252.48C231.925 252.924 232.094 253.47 232.069 254.025C232.069 255.519 231.004 256.266 228.874 256.266H220.85C220.387 256.289 219.93 256.159 219.548 255.896C218.976 255.365 218.468 254.768 218.036 254.118C216.681 252.302 215.225 250.564 213.676 248.911C213.153 248.328 212.599 247.774 212.016 247.251C211.778 247.024 211.468 246.885 211.14 246.859C210.321 246.859 209.912 247.628 209.912 249.166C209.912 250.421 210.18 251.284 210.715 251.755L211.391 252.221C212.153 252.714 212.534 253.33 212.534 254.07C212.534 255.001 211.918 255.668 210.685 256.07C209.452 256.472 207.365 256.673 204.421 256.673C201.811 256.673 199.906 256.517 198.708 256.207C198.226 256.082 197.794 255.812 197.47 255.434C197.162 255.087 196.992 254.64 196.993 254.177C196.993 253.437 197.415 252.795 198.261 252.25C198.597 252.043 198.876 251.756 199.074 251.415C199.294 250.926 199.447 250.41 199.529 249.88C199.81 248.285 199.951 245.83 199.951 242.514C199.951 238.57 199.803 235.77 199.507 234.113C199.449 233.601 199.291 233.104 199.041 232.653C198.766 232.289 198.412 231.992 198.006 231.784C197.651 231.614 197.351 231.347 197.142 231.014C196.932 230.681 196.822 230.295 196.822 229.902C196.811 229.591 196.872 229.282 197 228.999C197.129 228.716 197.321 228.467 197.562 228.271C198.266 227.774 199.079 227.455 199.932 227.339C201.721 227.028 203.534 226.887 205.349 226.918C207.568 226.918 209.211 227.13 210.278 227.554C210.715 227.702 211.092 227.989 211.351 228.371C211.611 228.752 211.739 229.208 211.717 229.669C211.735 230.011 211.658 230.351 211.495 230.652C211.161 231.066 210.773 231.433 210.341 231.743C210.114 231.94 209.906 232.412 209.716 233.159C209.528 233.884 209.432 234.629 209.432 235.378C209.432 236.564 209.699 237.156 210.234 237.156C210.591 237.143 210.929 236.992 211.177 236.735C211.83 236.063 212.447 235.357 213.026 234.62C214.083 233.308 214.612 232.412 214.612 231.932C214.562 231.526 214.424 231.136 214.209 230.789C214.041 230.492 213.947 230.158 213.935 229.817C213.935 228.771 214.5 228.032 215.629 227.598C216.758 227.164 218.674 226.955 221.379 226.969C223.55 226.969 225.153 227.11 226.186 227.391C227.47 227.743 228.112 228.492 228.112 229.635C228.112 230.087 227.971 230.528 227.709 230.896C227.475 231.253 227.123 231.515 226.714 231.636C226.039 231.773 225.351 231.83 224.662 231.806C224.09 231.79 223.519 231.881 222.98 232.072C222.447 232.359 221.964 232.73 221.549 233.17Z" fill="#61481C"></path><path d="M260.275 241.656L264.276 250.227C264.512 250.791 264.832 251.316 265.226 251.784C265.555 252.064 265.961 252.237 266.391 252.28C267.406 252.435 267.914 252.95 267.914 253.825C267.914 254.856 267.298 255.595 266.065 256.044C264.833 256.492 262.795 256.719 259.953 256.724C256.766 256.724 254.403 256.59 252.865 256.321C252.241 256.233 251.656 255.964 251.182 255.548C250.983 255.373 250.825 255.156 250.717 254.914C250.609 254.671 250.555 254.409 250.557 254.143C250.535 253.785 250.653 253.432 250.887 253.16C251.236 252.853 251.653 252.631 252.103 252.513C252.766 252.288 253.098 251.907 253.098 251.37C253.098 250.426 252.526 249.869 251.382 249.699C249.664 249.503 247.935 249.418 246.205 249.444C244.329 249.444 243.208 249.557 242.84 249.784C242.574 249.976 242.369 250.24 242.249 250.545C242.088 250.875 242.001 251.236 241.994 251.603C241.994 251.914 242.054 252.114 242.175 252.206C242.548 252.401 242.943 252.554 243.351 252.66C244.211 252.907 244.641 253.415 244.641 254.184C244.641 255.863 242.631 256.702 238.61 256.702C236.325 256.702 234.646 256.547 233.574 256.236C233.135 256.143 232.743 255.895 232.472 255.537C232.2 255.179 232.067 254.736 232.095 254.287C232.072 253.919 232.189 253.555 232.424 253.271C232.76 252.964 233.162 252.739 233.6 252.616C234.409 252.364 235.131 251.892 235.685 251.252C236.159 250.667 236.833 249.415 237.708 247.495L240.692 240.957C241.533 239.205 242.274 237.406 242.911 235.57C243.274 234.437 243.469 233.257 243.491 232.068C243.46 231.227 243.524 230.384 243.683 229.557C243.855 229.024 244.165 228.546 244.582 228.171C245.067 227.681 245.649 227.297 246.289 227.043C246.93 226.788 247.617 226.669 248.306 226.692C249.73 226.692 251.086 227.249 252.373 228.363C254.197 229.874 256.831 234.305 260.275 241.656ZM245.532 244.322H249.681C250.443 244.322 250.824 244.153 250.824 243.816C250.824 243.35 250.295 242.207 249.237 240.388C248.918 239.799 248.547 239.239 248.128 238.717C248.033 238.593 247.911 238.491 247.773 238.418C247.634 238.345 247.482 238.303 247.326 238.295C246.818 238.295 246.395 238.767 246.057 239.711C246.001 239.839 245.796 240.34 245.444 241.213C244.852 242.652 244.556 243.515 244.556 243.801C244.566 244.148 244.891 244.322 245.532 244.322Z" fill="#61481C"></path><path d="M282.598 244.133C282.06 244.133 281.718 244.296 281.57 244.621C281.422 244.947 281.348 245.701 281.348 246.884C281.315 248.289 281.429 249.693 281.688 251.074C281.739 251.315 281.848 251.54 282.006 251.728C282.245 251.955 282.515 252.147 282.808 252.298C283.654 252.764 284.077 253.38 284.077 254.147C284.077 255.078 283.488 255.738 282.309 256.125C281.131 256.512 279.138 256.705 276.33 256.705C271.109 256.705 268.5 255.719 268.502 253.747C268.488 253.458 268.57 253.172 268.735 252.934C269.046 252.599 269.402 252.311 269.793 252.076C270.35 251.737 270.789 251.233 271.046 250.634C271.33 249.697 271.483 248.725 271.501 247.746C271.572 246.745 271.608 243.155 271.608 236.975C271.608 235.003 271.51 233.669 271.312 232.974C271.226 232.639 271.068 232.328 270.849 232.061C270.63 231.794 270.355 231.578 270.044 231.428C269.58 231.239 269.156 230.962 268.794 230.615C268.574 230.344 268.461 230.002 268.476 229.653C268.476 229.396 268.53 229.142 268.634 228.908C268.738 228.673 268.889 228.462 269.079 228.289C269.556 227.862 270.136 227.566 270.761 227.431C271.581 227.254 272.419 227.176 273.257 227.198C273.723 227.198 274.887 227.268 276.748 227.409C277.101 227.438 277.658 227.452 278.419 227.449C279.689 227.449 281.381 227.364 283.496 227.194C284.837 227.096 285.775 227.046 286.31 227.046C289.33 227.046 291.827 227.772 293.802 229.224C295.579 230.536 296.468 232.355 296.468 234.682C296.482 235.926 296.16 237.152 295.536 238.228C294.944 239.268 294.052 240.105 292.977 240.632C292.526 240.858 292.3 241.127 292.3 241.438C292.3 241.847 292.645 242.178 293.336 242.432C294.664 242.854 295.812 243.711 296.593 244.865C297.284 245.953 297.777 247.618 298.072 249.861C298.201 250.793 298.384 251.396 298.623 251.669C298.862 251.943 299.42 252.208 300.295 252.464C300.576 252.559 300.816 252.75 300.971 253.004C301.154 253.276 301.249 253.597 301.245 253.925C301.228 254.41 301.05 254.876 300.738 255.248C300.392 255.699 299.942 256.058 299.426 256.295C298.24 256.845 296.618 257.119 294.56 257.119C291.809 257.119 289.836 256.392 288.643 254.938C288.07 254.197 287.621 253.368 287.316 252.483C286.788 250.972 286.347 249.432 285.992 247.872C285.667 246.531 285.254 245.585 284.753 245.036C284.474 244.747 284.139 244.518 283.768 244.363C283.398 244.207 282.999 244.129 282.598 244.133ZM281.37 233.34L281.137 238.269V238.461C281.098 238.815 281.176 239.172 281.359 239.478C281.484 239.579 281.628 239.653 281.782 239.697C281.937 239.741 282.098 239.753 282.257 239.733C283.49 239.733 284.394 239.413 284.968 238.772C285.542 238.131 285.825 237.104 285.815 235.692C285.815 232.98 284.848 231.624 282.916 231.624C282.706 231.6 282.495 231.621 282.294 231.685C282.093 231.748 281.908 231.854 281.751 231.994C281.482 232.39 281.349 232.862 281.37 233.34Z" fill="#61481C"></path><path d="M308.647 226.95C310.766 226.9 312.884 227.048 314.974 227.394C315.566 227.484 316.12 227.741 316.572 228.133C316.758 228.291 316.908 228.487 317.012 228.708C317.116 228.928 317.171 229.169 317.174 229.413C317.152 229.825 316.987 230.217 316.708 230.522C316.257 231.101 316.032 231.518 316.032 231.772C316.032 232.279 316.434 233.091 317.237 234.205C317.76 234.925 318.253 235.284 318.716 235.284C319.035 235.277 319.341 235.161 319.585 234.955C319.996 234.606 320.368 234.213 320.695 233.783C321.244 233.093 321.519 232.542 321.519 232.13C321.529 231.936 321.496 231.741 321.423 231.561C321.217 231.241 320.987 230.937 320.735 230.651C320.438 230.281 320.288 229.813 320.314 229.339C320.314 227.744 322.472 226.946 326.788 226.946C329.229 226.946 330.816 227.06 331.551 227.286C332.011 227.424 332.416 227.705 332.705 228.089C332.995 228.448 333.155 228.895 333.159 229.357C333.177 229.602 333.138 229.847 333.046 230.074C332.955 230.302 332.813 230.505 332.631 230.67C332.079 231.044 331.444 231.277 330.782 231.346C330.02 231.483 329.301 231.798 328.685 232.267C327.532 233.273 326.444 234.351 325.428 235.495C323.51 237.568 322.314 239.096 321.841 240.077C321.367 241.058 321.131 242.521 321.131 244.466C321.131 246.103 321.194 247.619 321.319 249.014C321.33 249.63 321.468 250.238 321.722 250.8C322.038 251.23 322.461 251.569 322.95 251.783C323.981 252.321 324.496 252.991 324.496 253.795C324.496 255.715 321.661 256.674 315.991 256.672C313.772 256.684 311.558 256.457 309.387 255.995C307.637 255.615 306.762 254.861 306.762 253.732C306.762 252.857 307.298 252.23 308.37 251.85C309.174 251.569 309.674 251.209 309.871 250.77C310.323 249.797 310.548 247.497 310.548 243.87C310.581 242.979 310.466 242.088 310.208 241.234C309.833 240.353 309.335 239.53 308.729 238.79C307.217 236.81 305.57 234.937 303.8 233.184C303.203 232.557 302.483 232.06 301.685 231.724C301.076 231.537 300.493 231.274 299.951 230.94C299.756 230.773 299.602 230.565 299.499 230.331C299.397 230.097 299.349 229.842 299.359 229.586C299.359 228.642 300.071 227.962 301.496 227.545C302.921 227.129 305.305 226.93 308.647 226.95Z" fill="#61481C"></path><path d="M357.941 241.656L361.942 250.227C362.178 250.791 362.499 251.316 362.892 251.784C363.221 252.064 363.628 252.237 364.057 252.279C365.073 252.435 365.581 252.95 365.581 253.825C365.581 254.855 364.964 255.595 363.732 256.044C362.499 256.492 360.468 256.718 357.638 256.72C354.451 256.72 352.088 256.586 350.55 256.317C349.926 256.229 349.341 255.96 348.867 255.544C348.668 255.369 348.509 255.152 348.402 254.91C348.294 254.667 348.239 254.405 348.242 254.139C348.22 253.781 348.338 253.428 348.571 253.156C348.921 252.849 349.338 252.627 349.788 252.509C350.451 252.284 350.783 251.903 350.783 251.366C350.783 250.422 350.211 249.865 349.067 249.695C347.348 249.499 345.619 249.414 343.89 249.44C342.014 249.44 340.893 249.553 340.525 249.78C340.259 249.972 340.054 250.236 339.934 250.541C339.773 250.871 339.686 251.232 339.678 251.599C339.678 251.91 339.739 252.11 339.86 252.202C340.233 252.397 340.628 252.55 341.035 252.657C341.896 252.903 342.326 253.411 342.326 254.18C342.326 255.859 340.316 256.698 336.295 256.698C334.01 256.698 332.331 256.543 331.259 256.232C330.819 256.139 330.428 255.891 330.157 255.533C329.885 255.175 329.751 254.732 329.78 254.283C329.756 253.915 329.874 253.551 330.109 253.267C330.444 252.96 330.847 252.736 331.285 252.612C332.093 252.361 332.816 251.888 333.37 251.248C333.844 250.663 334.518 249.411 335.393 247.491L338.377 240.953C339.218 239.201 339.959 237.402 340.595 235.566C340.959 234.433 341.154 233.253 341.176 232.064C341.153 231.215 341.227 230.367 341.398 229.535C341.57 229.002 341.88 228.523 342.296 228.148C342.782 227.659 343.363 227.275 344.004 227.02C344.645 226.766 345.331 226.646 346.02 226.669C347.445 226.669 348.801 227.226 350.087 228.341C351.889 229.867 354.507 234.305 357.941 241.656ZM343.213 244.322H347.362C348.124 244.322 348.505 244.153 348.505 243.815C348.505 243.349 347.976 242.207 346.918 240.388C346.6 239.798 346.228 239.239 345.809 238.716C345.714 238.592 345.592 238.491 345.454 238.418C345.316 238.345 345.163 238.303 345.007 238.295C344.499 238.295 344.076 238.767 343.738 239.711C343.682 239.839 343.477 240.34 343.125 241.212C342.533 242.652 342.237 243.515 342.237 243.801C342.247 244.148 342.576 244.322 343.224 244.322H343.213Z" fill="#61481C"></path><path d="M208.555 297.506L205.719 297.528C203.73 297.557 202.277 297.599 201.36 297.653C200.541 297.725 199.956 297.759 199.603 297.757C198.862 297.797 198.132 297.564 197.551 297.103C197.32 296.913 197.133 296.674 197.006 296.404C196.878 296.133 196.811 295.838 196.811 295.538C196.792 295.205 196.888 294.876 197.085 294.607C197.487 294.203 197.935 293.848 198.42 293.549C198.856 293.227 199.157 292.756 199.267 292.225C199.516 290.945 199.686 289.651 199.773 288.35C200.042 285.274 200.176 281.486 200.176 276.987C200.176 275.336 200.067 274.239 199.847 273.696C199.628 273.154 199.116 272.707 198.313 272.354C197.381 271.96 196.915 271.382 196.915 270.62C196.914 270.316 196.99 270.017 197.136 269.75C197.283 269.484 197.494 269.259 197.751 269.096C198.387 268.679 199.139 268.472 199.899 268.505C200.377 268.505 200.994 268.526 201.748 268.568C202.98 268.624 204.32 268.653 205.767 268.653C206.825 268.653 208.905 268.611 212.009 268.527C212.983 268.497 213.864 268.483 214.653 268.483C216.179 268.445 217.705 268.598 219.193 268.937C220.295 269.216 221.319 269.741 222.189 270.472C222.869 271.045 223.409 271.766 223.769 272.58C224.128 273.394 224.297 274.279 224.263 275.168C224.261 276.15 224.052 277.12 223.649 278.015C223.289 278.878 222.723 279.64 222 280.234C221.507 280.628 221.26 280.988 221.26 281.313C221.26 281.639 221.556 281.935 222.148 282.201C223.374 282.717 224.456 283.523 225.302 284.549C226.298 285.754 226.817 287.283 226.763 288.846C226.749 290.914 225.957 292.901 224.544 294.411C222.572 296.629 219.673 297.739 215.847 297.739C215.324 297.739 214.04 297.703 211.994 297.631L208.555 297.506ZM210.016 274.547V278.906C209.977 279.408 210.069 279.911 210.282 280.367C210.384 280.513 210.523 280.629 210.685 280.703C210.847 280.777 211.026 280.807 211.203 280.788C212.246 280.788 213.015 280.468 213.51 279.827C214.006 279.186 214.252 278.18 214.25 276.81C214.25 275.483 213.996 274.457 213.488 273.73C213.251 273.378 212.928 273.094 212.55 272.903C212.172 272.712 211.752 272.621 211.328 272.639C211.136 272.617 210.941 272.643 210.762 272.715C210.582 272.788 210.424 272.904 210.301 273.053C210.069 273.515 209.97 274.032 210.016 274.547ZM210.016 286.749V288.761C210.016 290.609 210.15 291.842 210.419 292.458C210.688 293.075 211.231 293.378 212.05 293.368C214.194 293.368 215.267 292.112 215.267 289.6C215.267 286.469 214.067 284.904 211.669 284.904C211.047 284.904 210.617 285.038 210.378 285.307C210.139 285.576 210.018 286.051 210.016 286.734V286.749Z" fill="#61481C"></path><path d="M255.194 282.907L259.195 291.478C259.431 292.042 259.752 292.567 260.145 293.035C260.474 293.315 260.88 293.488 261.31 293.53C262.326 293.686 262.833 294.201 262.833 295.076C262.833 296.106 262.217 296.846 260.985 297.295C259.752 297.743 257.716 297.966 254.876 297.964C251.689 297.964 249.326 297.83 247.788 297.561C247.164 297.472 246.579 297.204 246.105 296.788C245.906 296.612 245.748 296.396 245.64 296.154C245.532 295.911 245.478 295.648 245.48 295.383C245.458 295.025 245.576 294.672 245.809 294.399C246.159 294.092 246.576 293.871 247.026 293.752C247.689 293.528 248.021 293.147 248.021 292.61C248.021 291.666 247.449 291.108 246.305 290.938C244.587 290.743 242.857 290.657 241.128 290.683C239.252 290.683 238.131 290.797 237.763 291.023C237.497 291.215 237.292 291.48 237.172 291.785C237.011 292.115 236.924 292.476 236.917 292.843C236.917 293.153 236.977 293.354 237.098 293.445C237.471 293.641 237.866 293.793 238.274 293.9C239.134 294.147 239.564 294.654 239.564 295.424C239.564 297.102 237.554 297.942 233.533 297.942C231.248 297.942 229.569 297.786 228.497 297.476C228.058 297.383 227.666 297.134 227.395 296.777C227.123 296.419 226.989 295.975 227.018 295.527C226.994 295.159 227.112 294.795 227.347 294.51C227.682 294.203 228.085 293.979 228.523 293.856C229.332 293.604 230.054 293.131 230.608 292.491C231.082 291.907 231.756 290.655 232.631 288.735L235.615 282.197C236.456 280.445 237.197 278.646 237.834 276.81C238.197 275.677 238.392 274.497 238.414 273.308C238.391 272.459 238.465 271.61 238.636 270.779C238.808 270.245 239.118 269.767 239.535 269.392C240.02 268.902 240.601 268.518 241.242 268.264C241.883 268.009 242.569 267.89 243.258 267.913C244.683 267.913 246.039 268.47 247.325 269.584C249.13 271.115 251.753 275.556 255.194 282.907ZM240.466 285.573H244.615C245.377 285.573 245.758 285.404 245.758 285.066C245.758 284.601 245.229 283.458 244.171 281.639C243.852 281.05 243.481 280.49 243.062 279.967C242.967 279.844 242.845 279.742 242.707 279.669C242.568 279.596 242.416 279.554 242.26 279.546C241.752 279.546 241.329 280.018 240.991 280.962C240.935 281.09 240.73 281.591 240.378 282.463C239.786 283.903 239.49 284.766 239.49 285.052C239.493 285.399 239.818 285.573 240.466 285.573Z" fill="#61481C"></path><path d="M275.321 269.659L285.859 278.903C286.845 279.763 287.558 280.193 287.996 280.193C288.736 280.193 289.106 279.411 289.106 277.845C289.106 276.068 289 274.855 288.788 274.207C288.68 273.883 288.506 273.586 288.276 273.334C288.046 273.083 287.766 272.882 287.453 272.746C287.003 272.555 286.604 272.261 286.288 271.888C286.049 271.544 285.93 271.131 285.948 270.712C285.948 269.527 286.759 268.765 288.381 268.427C289.53 268.252 290.692 268.182 291.853 268.217C293.983 268.217 295.462 268.34 296.29 268.586C297.587 268.983 298.237 269.731 298.239 270.831C298.239 271.748 297.71 272.439 296.653 272.905C296.341 273.024 296.048 273.189 295.784 273.393C295.603 273.572 295.466 273.79 295.381 274.029C294.999 274.961 294.801 276.725 294.789 279.321V286.206C294.789 287.263 294.796 288.709 294.811 290.543C294.826 293.025 294.678 294.816 294.367 295.916C293.985 297.284 293.294 297.968 292.293 297.968C291.898 297.979 291.508 297.885 291.162 297.694C290.6 297.319 290.073 296.895 289.586 296.426L277.037 285.189C276.161 284.4 275.434 284.006 274.855 284.006C273.995 284.006 273.564 285.197 273.564 287.581C273.564 289.553 273.674 290.893 273.894 291.601C273.993 291.945 274.164 292.265 274.396 292.539C274.628 292.812 274.915 293.033 275.239 293.187C276.184 293.653 276.656 294.259 276.656 295.006C276.656 296.978 274.547 297.964 270.329 297.964C268.423 297.964 266.944 297.718 265.892 297.225C264.839 296.732 264.314 296.023 264.317 295.099C264.288 294.715 264.393 294.334 264.612 294.019C265.007 293.631 265.457 293.303 265.947 293.046C266.61 292.652 267.012 291.953 267.153 290.95C267.436 288.343 267.559 285.721 267.522 283.1C267.522 279.461 267.31 276.809 266.886 275.142C266.785 274.655 266.584 274.194 266.295 273.789C265.965 273.426 265.561 273.138 265.112 272.942C264.614 272.73 264.164 272.421 263.788 272.033C263.539 271.729 263.407 271.346 263.418 270.953C263.418 269.599 264.582 268.747 266.909 268.394C268.287 268.253 269.672 268.196 271.057 268.224C271.888 268.187 272.719 268.276 273.524 268.487C274.189 268.764 274.799 269.161 275.321 269.659Z" fill="#61481C"></path><path d="M315.418 268.05C317.19 268.039 318.952 268.304 320.643 268.834C321.125 269.022 321.63 269.146 322.144 269.204C322.756 269.12 323.354 268.956 323.923 268.716C324.216 268.617 324.523 268.567 324.832 268.568C325.621 268.568 326.375 269.034 327.095 269.965C328.215 271.357 328.827 273.089 328.829 274.876C328.884 275.94 328.557 276.989 327.909 277.834C327.619 278.194 327.249 278.482 326.829 278.675C326.408 278.867 325.949 278.959 325.487 278.943C324.606 278.922 323.757 278.61 323.072 278.056C322.438 277.437 321.851 276.772 321.316 276.067C319.763 274.161 317.978 273.208 315.961 273.208C315.126 273.176 314.295 273.342 313.536 273.691C312.776 274.041 312.11 274.564 311.591 275.22C310.511 276.561 309.971 278.366 309.971 280.637C309.971 284.009 310.834 286.88 312.56 289.249C313.186 290.089 313.979 290.792 314.889 291.312C315.702 291.802 316.629 292.068 317.577 292.085C317.914 292.094 318.248 292.033 318.56 291.906C318.871 291.779 319.152 291.588 319.385 291.345C319.623 291.096 319.807 290.801 319.929 290.479C320.051 290.158 320.108 289.815 320.095 289.471C320.123 289.201 320.083 288.928 319.98 288.677C319.877 288.426 319.713 288.205 319.504 288.032C319.377 287.933 319.229 287.865 319.071 287.832C318.938 287.813 318.533 287.802 317.855 287.799C317.577 287.808 317.3 287.761 317.04 287.661C316.78 287.562 316.543 287.411 316.342 287.219C316.144 287.028 315.987 286.798 315.883 286.543C315.78 286.288 315.731 286.015 315.74 285.74C315.74 284.569 316.516 283.737 318.069 283.244C319.989 282.678 321.984 282.407 323.985 282.441C326.014 282.395 328.038 282.644 329.994 283.181C331.532 283.659 332.301 284.522 332.301 285.769C332.305 286.014 332.261 286.257 332.17 286.484C332.079 286.711 331.944 286.918 331.773 287.093C331.407 287.471 330.92 287.707 330.397 287.759C330.052 287.774 329.718 287.888 329.436 288.088C329.207 288.414 329.052 288.786 328.981 289.178C328.403 291.375 327.162 293.34 325.427 294.806C324.13 295.883 322.639 296.703 321.035 297.221C319.292 297.803 317.466 298.095 315.629 298.086C312.657 298.115 309.729 297.379 307.124 295.949C304.752 294.673 302.772 292.775 301.396 290.459C300.021 288.144 299.301 285.497 299.315 282.804C299.319 280.232 300.038 277.711 301.389 275.523C302.846 273.064 304.984 271.079 307.546 269.81C309.99 268.598 312.69 267.994 315.418 268.05Z" fill="#61481C"></path><path d="M364.578 279.224V284.401C364.578 287.519 364.346 289.727 363.88 291.023C362.879 293.76 360.677 295.742 357.276 296.969C355.034 297.762 352.668 298.148 350.291 298.112C345.762 298.112 342.137 297.033 339.416 294.876C338.17 293.926 337.217 292.645 336.665 291.179C336.157 289.783 335.903 287.766 335.903 285.126C335.903 284.095 335.939 282.403 336.01 280.049C336.052 278.385 336.073 277.284 336.073 276.747C336.118 275.927 336.029 275.105 335.811 274.314C335.564 273.783 335.162 273.341 334.657 273.045C333.725 272.439 333.259 271.762 333.259 271.015C333.263 270.735 333.329 270.458 333.451 270.206C333.574 269.953 333.751 269.731 333.969 269.555C334.504 269.101 335.152 268.801 335.844 268.686C337.658 268.352 339.501 268.196 341.346 268.22C343.292 268.183 345.237 268.361 347.144 268.749C348.653 269.086 349.407 269.855 349.407 271.056C349.417 271.327 349.362 271.596 349.249 271.842C349.135 272.088 348.965 272.304 348.752 272.472C348.346 272.721 347.922 272.939 347.484 273.127C347.259 273.226 347.06 273.374 346.901 273.561C346.741 273.748 346.626 273.969 346.563 274.206C346.365 275.054 346.283 275.925 346.319 276.795C346.319 278.027 346.263 280.68 346.149 284.752C346.078 287.18 346.734 289.029 348.116 290.299C349.311 291.367 350.875 291.928 352.476 291.863C353.532 291.878 354.579 291.664 355.545 291.238C356.391 290.88 357.119 290.289 357.642 289.533C358.026 288.976 358.292 288.347 358.426 287.684C358.586 286.769 358.657 285.84 358.636 284.911V280.259C358.565 276.69 358.463 274.595 358.329 273.973C358.196 273.352 357.741 272.869 356.965 272.524C356.418 272.314 355.911 272.014 355.464 271.636C355.332 271.507 355.228 271.352 355.159 271.181C355.09 271.01 355.056 270.826 355.061 270.642C355.061 269.796 355.565 269.18 356.573 268.793C357.581 268.406 359.2 268.212 361.428 268.212C363.615 268.212 365.198 268.403 366.18 268.786C367.161 269.168 367.654 269.774 367.659 270.605C367.684 270.929 367.594 271.251 367.403 271.514C367.003 271.876 366.555 272.182 366.072 272.424C365.333 272.848 364.906 273.303 364.793 273.788C364.68 274.274 364.608 276.086 364.578 279.224Z" fill="#61481C"></path><path d="M380.722 269.659L391.261 278.903C392.247 279.763 392.959 280.193 393.398 280.193C394.137 280.193 394.507 279.411 394.507 277.845C394.507 276.068 394.401 274.855 394.189 274.207C394.082 273.883 393.907 273.586 393.677 273.334C393.447 273.083 393.167 272.882 392.854 272.746C392.405 272.555 392.006 272.261 391.69 271.888C391.451 271.544 391.331 271.131 391.349 270.712C391.349 269.527 392.16 268.765 393.782 268.427C394.931 268.252 396.093 268.182 397.255 268.217C399.384 268.217 400.863 268.34 401.692 268.586C402.988 268.983 403.638 269.731 403.64 270.831C403.64 271.748 403.112 272.439 402.054 272.905C401.742 273.024 401.449 273.189 401.185 273.393C401.005 273.572 400.867 273.79 400.782 274.029C400.4 274.961 400.203 276.725 400.19 279.321V286.206C400.19 287.263 400.198 288.709 400.213 290.543C400.227 293.025 400.08 294.816 399.769 295.916C399.387 297.284 398.695 297.968 397.695 297.968C397.3 297.979 396.909 297.885 396.563 297.694C396.001 297.319 395.474 296.895 394.988 296.426L382.438 285.189C381.563 284.4 380.836 284.006 380.256 284.006C379.396 284.006 378.966 285.197 378.966 287.581C378.966 289.553 379.076 290.893 379.295 291.601C379.394 291.945 379.565 292.265 379.797 292.539C380.029 292.812 380.317 293.033 380.641 293.187C381.585 293.653 382.057 294.259 382.057 295.006C382.057 296.978 379.948 297.964 375.73 297.964C373.825 297.964 372.346 297.718 371.293 297.225C370.241 296.732 369.716 296.023 369.718 295.099C369.69 294.715 369.794 294.334 370.014 294.019C370.409 293.631 370.858 293.303 371.349 293.046C372.012 292.652 372.414 291.953 372.554 290.95C372.837 288.343 372.961 285.721 372.924 283.1C372.924 279.461 372.712 276.809 372.288 275.142C372.186 274.655 371.985 274.194 371.696 273.789C371.366 273.426 370.963 273.138 370.513 272.942C370.016 272.73 369.566 272.421 369.189 272.033C368.94 271.729 368.809 271.346 368.819 270.953C368.819 269.599 369.983 268.747 372.31 268.394C373.688 268.253 375.074 268.196 376.459 268.224C377.289 268.187 378.121 268.276 378.925 268.487C379.591 268.764 380.2 269.161 380.722 269.659Z" fill="#61481C"></path><path d="M431.214 282.907L435.222 291.475C435.458 292.039 435.779 292.563 436.172 293.031C436.501 293.311 436.908 293.484 437.337 293.527C438.353 293.682 438.861 294.197 438.861 295.072C438.861 296.103 438.244 296.842 437.012 297.291C435.779 297.74 433.741 297.964 430.896 297.964C427.708 297.964 425.346 297.83 423.807 297.561C423.183 297.472 422.599 297.204 422.125 296.788C421.926 296.612 421.767 296.396 421.66 296.154C421.552 295.911 421.497 295.648 421.5 295.383C421.478 295.025 421.596 294.672 421.829 294.399C422.179 294.092 422.596 293.871 423.046 293.752C423.709 293.528 424.04 293.147 424.04 292.61C424.04 291.666 423.468 291.108 422.325 290.938C420.606 290.743 418.877 290.657 417.148 290.683C415.272 290.683 414.15 290.797 413.783 291.023C413.517 291.215 413.312 291.48 413.191 291.785C413.03 292.115 412.943 292.476 412.936 292.843C412.936 293.153 412.997 293.354 413.117 293.445C413.491 293.641 413.885 293.793 414.293 293.9C415.154 294.147 415.584 294.654 415.584 295.424C415.584 297.102 413.574 297.942 409.553 297.942C407.268 297.942 405.589 297.786 404.517 297.476C404.077 297.383 403.686 297.134 403.415 296.777C403.143 296.419 403.009 295.975 403.038 295.527C403.014 295.159 403.132 294.795 403.367 294.51C403.702 294.203 404.105 293.979 404.543 293.856C405.351 293.604 406.074 293.132 406.628 292.491C407.101 291.907 407.776 290.655 408.651 288.735L411.635 282.197C412.476 280.445 413.217 278.646 413.853 276.81C414.216 275.677 414.412 274.497 414.434 273.308C414.411 272.459 414.485 271.61 414.656 270.779C414.828 270.245 415.138 269.767 415.554 269.392C416.04 268.902 416.621 268.518 417.262 268.264C417.902 268.009 418.589 267.89 419.278 267.913C420.703 267.913 422.058 268.47 423.345 269.584C425.15 271.115 427.773 275.556 431.214 282.907ZM416.486 285.573H420.635C421.397 285.573 421.777 285.404 421.777 285.066C421.777 284.601 421.249 283.458 420.191 281.639C419.872 281.049 419.501 280.49 419.082 279.967C418.986 279.844 418.865 279.742 418.727 279.669C418.588 279.596 418.436 279.554 418.279 279.546C417.772 279.546 417.349 280.018 417.011 280.962C416.954 281.09 416.75 281.591 416.397 282.463C415.806 283.903 415.51 284.766 415.51 285.052C415.512 285.399 415.838 285.573 416.486 285.573Z" fill="#61481C"></path><path d="M451.341 269.659L461.879 278.903C462.865 279.763 463.577 280.193 464.016 280.193C464.756 280.193 465.125 279.411 465.125 277.845C465.125 276.068 465.019 274.855 464.807 274.207C464.7 273.883 464.526 273.586 464.296 273.334C464.066 273.083 463.785 272.882 463.473 272.746C463.023 272.555 462.624 272.261 462.308 271.888C462.069 271.544 461.949 271.131 461.968 270.712C461.968 269.527 462.779 268.765 464.401 268.427C465.549 268.252 466.711 268.182 467.873 268.217C470.003 268.217 471.482 268.34 472.31 268.586C473.607 268.983 474.256 269.731 474.259 270.831C474.259 271.748 473.73 272.439 472.672 272.905C472.36 273.024 472.068 273.189 471.803 273.393C471.623 273.572 471.485 273.79 471.4 274.029C471.018 274.961 470.821 276.725 470.809 279.321V286.206C470.809 287.263 470.816 288.709 470.831 290.543C470.846 293.025 470.698 294.816 470.387 295.916C470.005 297.284 469.314 297.968 468.313 297.968C467.918 297.979 467.527 297.885 467.181 297.694C466.62 297.319 466.093 296.895 465.606 296.426L453.056 285.189C452.181 284.4 451.454 284.006 450.875 284.006C450.014 284.006 449.584 285.197 449.584 287.581C449.584 289.553 449.694 290.893 449.913 291.601C450.012 291.945 450.184 292.265 450.416 292.539C450.648 292.812 450.935 293.033 451.259 293.187C452.203 293.653 452.675 294.259 452.675 295.006C452.675 296.978 450.566 297.964 446.349 297.964C444.443 297.964 442.964 297.718 441.911 297.225C440.859 296.732 440.334 296.023 440.336 295.099C440.308 294.715 440.412 294.334 440.632 294.019C441.027 293.631 441.477 293.303 441.967 293.046C442.63 292.652 443.032 291.953 443.172 290.95C443.455 288.343 443.579 285.721 443.542 283.1C443.542 279.461 443.33 276.809 442.906 275.142C442.805 274.655 442.603 274.194 442.315 273.789C441.984 273.426 441.581 273.138 441.131 272.942C440.634 272.73 440.184 272.421 439.808 272.033C439.558 271.729 439.427 271.346 439.438 270.953C439.438 269.599 440.601 268.747 442.928 268.394C444.307 268.253 445.692 268.196 447.077 268.224C447.908 268.187 448.739 268.276 449.543 268.487C450.209 268.764 450.818 269.161 451.341 269.659Z" fill="#61481C"></path><path d="M200.21 320.753L197.44 309.841H198.919L200.213 315.361C200.539 316.722 200.827 318.083 201.023 319.133H201.056C201.234 318.05 201.574 316.752 201.948 315.343L203.404 309.841H204.884L206.211 315.387C206.518 316.682 206.81 317.976 206.973 319.126H207.006C207.232 317.928 207.538 316.715 207.879 315.354L209.321 309.852H210.774L207.683 320.764H206.204L204.828 315.08C204.525 313.907 204.287 312.719 204.114 311.52H204.081C203.864 312.721 203.583 313.909 203.238 315.08L201.685 320.764L200.21 320.753Z" fill="#61481C"></path><path d="M218.628 316.767C218.628 319.666 216.62 320.927 214.727 320.927C212.604 320.927 210.97 319.374 210.97 316.896C210.97 314.275 212.686 312.736 214.856 312.736C217.108 312.755 218.628 314.374 218.628 316.767ZM212.412 316.848C212.412 318.564 213.399 319.858 214.793 319.858C216.187 319.858 217.174 318.579 217.174 316.815C217.174 315.487 216.509 313.805 214.826 313.805C213.144 313.805 212.412 315.343 212.412 316.848Z" fill="#61481C"></path><path d="M227.517 316.767C227.517 319.666 225.509 320.927 223.616 320.927C221.494 320.927 219.859 319.374 219.859 316.896C219.859 314.275 221.575 312.736 223.746 312.736C225.994 312.755 227.517 314.374 227.517 316.767ZM221.301 316.848C221.301 318.564 222.289 319.858 223.683 319.858C225.077 319.858 226.064 318.579 226.064 316.815C226.064 315.487 225.402 313.805 223.716 313.805C222.03 313.805 221.298 315.343 221.298 316.848H221.301Z" fill="#61481C"></path><path d="M236.077 309.256V318.726C236.077 319.421 236.077 320.205 236.144 320.749H234.864L234.798 319.388H234.764C234.509 319.869 234.123 320.269 233.651 320.541C233.179 320.813 232.639 320.947 232.095 320.926C230.201 320.926 228.745 319.325 228.745 316.944C228.745 314.355 230.346 312.736 232.257 312.736C232.722 312.708 233.186 312.804 233.601 313.014C234.016 313.225 234.368 313.542 234.62 313.934H234.653V309.256H236.077ZM234.653 316.104C234.655 315.903 234.633 315.702 234.587 315.505C234.485 315.036 234.226 314.616 233.851 314.315C233.477 314.014 233.011 313.851 232.531 313.853C231.052 313.853 230.183 315.147 230.183 316.881C230.183 318.467 230.959 319.78 232.498 319.78C232.988 319.779 233.463 319.609 233.843 319.299C234.224 318.99 234.486 318.559 234.587 318.079C234.635 317.878 234.657 317.672 234.653 317.465V316.104Z" fill="#61481C"></path><path d="M241.727 319.041C242.49 319.5 243.362 319.746 244.253 319.755C245.695 319.755 246.534 318.993 246.534 317.906C246.534 316.885 245.95 316.305 244.478 315.735C242.696 315.103 241.598 314.182 241.598 312.644C241.598 310.943 243.007 309.686 245.125 309.686C245.961 309.658 246.791 309.843 247.536 310.222L247.148 311.372C246.512 311.03 245.8 310.852 245.077 310.854C243.598 310.854 243.021 311.745 243.021 312.489C243.021 313.509 243.687 314.012 245.192 314.593C247.041 315.306 247.976 316.197 247.976 317.798C247.976 319.481 246.73 320.938 244.157 320.938C243.184 320.95 242.225 320.71 241.372 320.243L241.727 319.041Z" fill="#61481C"></path><path d="M249.851 315.473C249.851 314.471 249.818 313.661 249.784 312.914H251.079L251.145 314.256H251.178C251.461 313.774 251.87 313.378 252.36 313.11C252.85 312.843 253.405 312.713 253.963 312.737C255.856 312.737 257.291 314.338 257.291 316.719C257.291 319.537 255.575 320.927 253.73 320.927C253.256 320.947 252.785 320.844 252.362 320.629C251.94 320.413 251.58 320.091 251.319 319.696H251.286V323.959H249.877L249.851 315.473ZM251.26 317.562C251.264 317.758 251.286 317.954 251.326 318.146C251.448 318.621 251.724 319.043 252.111 319.344C252.497 319.646 252.973 319.811 253.464 319.814C254.969 319.814 255.845 318.583 255.845 316.785C255.845 315.214 255.02 313.872 253.515 313.872C252.919 313.924 252.362 314.191 251.948 314.623C251.534 315.054 251.291 315.622 251.264 316.22L251.26 317.562Z" fill="#61481C"></path><path d="M259.853 317.092C259.886 319.018 261.118 319.813 262.541 319.813C263.285 319.837 264.026 319.699 264.712 319.41L264.956 320.431C264.136 320.771 263.255 320.936 262.367 320.915C259.957 320.915 258.514 319.329 258.514 316.966C258.514 314.603 259.886 312.754 262.171 312.754C264.73 312.754 265.411 315.006 265.411 316.452C265.408 316.675 265.392 316.897 265.362 317.118L259.853 317.092ZM264.02 316.082C264.02 315.176 263.65 313.768 262.046 313.768C260.604 313.768 259.975 315.095 259.86 316.082H264.02Z" fill="#61481C"></path><path d="M272.758 320.461C272.05 320.775 271.281 320.929 270.506 320.912C268.143 320.912 266.605 319.311 266.605 316.915C266.605 314.519 268.258 312.755 270.817 312.755C271.496 312.747 272.169 312.884 272.791 313.158L272.466 314.267C271.957 314.002 271.387 313.875 270.813 313.897C269.016 313.897 268.044 315.225 268.044 316.855C268.044 318.667 269.208 319.788 270.765 319.788C271.37 319.791 271.967 319.658 272.514 319.399L272.758 320.461Z" fill="#61481C"></path><path d="M276.008 310.713C275.993 310.937 275.894 311.147 275.73 311.301C275.567 311.455 275.351 311.54 275.126 311.54C274.902 311.54 274.685 311.455 274.522 311.301C274.358 311.147 274.259 310.937 274.244 310.713C274.241 310.595 274.262 310.478 274.306 310.369C274.35 310.259 274.415 310.16 274.498 310.076C274.582 309.993 274.681 309.928 274.791 309.884C274.9 309.84 275.017 309.819 275.135 309.822C275.253 309.818 275.369 309.839 275.478 309.883C275.587 309.926 275.685 309.992 275.767 310.076C275.849 310.16 275.913 310.26 275.955 310.369C275.996 310.479 276.014 310.596 276.008 310.713ZM274.422 320.753V312.917H275.853V320.753H274.422Z" fill="#61481C"></path><path d="M282.55 320.752L282.435 319.765H282.387C282.109 320.135 281.746 320.434 281.33 320.637C280.913 320.839 280.454 320.94 279.991 320.93C278.405 320.93 277.595 319.821 277.595 318.678C277.595 316.785 279.277 315.746 282.306 315.764V315.601C282.306 314.954 282.128 313.79 280.523 313.79C279.802 313.792 279.096 313.994 278.482 314.374L278.161 313.435C278.941 312.965 279.838 312.724 280.749 312.739C283.145 312.739 283.729 314.374 283.729 315.945V318.878C283.719 319.506 283.762 320.135 283.859 320.756L282.55 320.752ZM282.339 316.755C280.786 316.722 279.011 316.999 279.011 318.519C278.996 318.7 279.021 318.882 279.083 319.053C279.145 319.224 279.244 319.379 279.371 319.509C279.499 319.638 279.653 319.738 279.824 319.802C279.994 319.866 280.176 319.893 280.357 319.88C280.771 319.891 281.178 319.769 281.518 319.533C281.859 319.297 282.115 318.959 282.25 318.567C282.301 318.421 282.329 318.267 282.332 318.112L282.339 316.755Z" fill="#61481C"></path><path d="M286.011 309.256H287.434V320.752H286.011V309.256Z" fill="#61481C"></path><path d="M291.416 310.713C291.402 310.937 291.302 311.147 291.139 311.301C290.975 311.455 290.759 311.54 290.534 311.54C290.31 311.54 290.094 311.455 289.93 311.301C289.766 311.147 289.667 310.937 289.652 310.713C289.649 310.595 289.67 310.478 289.714 310.369C289.758 310.259 289.823 310.16 289.907 310.076C289.99 309.993 290.089 309.928 290.199 309.884C290.308 309.84 290.426 309.819 290.544 309.822C290.661 309.818 290.777 309.839 290.886 309.883C290.995 309.926 291.094 309.992 291.176 310.076C291.258 310.16 291.321 310.26 291.363 310.369C291.404 310.479 291.422 310.596 291.416 310.713ZM289.83 320.753V312.917H291.253V320.753H289.83Z" fill="#61481C"></path><path d="M293.424 319.296C293.989 319.649 294.637 319.844 295.302 319.862C296.338 319.862 296.822 319.344 296.822 318.697C296.822 318.05 296.419 317.643 295.365 317.255C293.957 316.752 293.295 315.976 293.295 315.036C293.295 313.776 294.315 312.737 295.998 312.737C296.671 312.729 297.334 312.896 297.924 313.221L297.554 314.256C297.073 313.959 296.519 313.802 295.953 313.801C295.11 313.801 294.641 314.286 294.641 314.87C294.641 315.517 295.11 315.809 296.12 316.198C297.48 316.715 298.176 317.396 298.176 318.56C298.176 319.936 297.107 320.908 295.243 320.908C294.47 320.926 293.706 320.742 293.025 320.376L293.424 319.296Z" fill="#61481C"></path><path d="M301.737 310.665V312.917H303.778V314H301.737V318.227C301.737 319.199 302.01 319.747 302.805 319.747C303.083 319.751 303.36 319.718 303.63 319.65L303.696 320.719C303.292 320.86 302.864 320.925 302.436 320.911C302.151 320.928 301.866 320.884 301.601 320.78C301.335 320.677 301.095 320.517 300.897 320.312C300.494 319.891 300.346 319.203 300.346 318.271V314H299.148V312.917H300.361V311.039L301.737 310.665Z" fill="#61481C"></path><path d="M307.893 322.738C308.328 321.479 308.653 320.185 308.866 318.871L310.452 318.708C310.081 320.071 309.566 321.39 308.914 322.642L307.893 322.738Z" fill="#61481C"></path><path d="M315.647 309.97C316.54 309.825 317.445 309.754 318.35 309.76C319.744 309.76 320.761 310.085 321.412 310.665C321.727 310.953 321.976 311.307 322.141 311.701C322.306 312.095 322.382 312.52 322.366 312.947C322.386 313.372 322.322 313.796 322.178 314.196C322.033 314.596 321.81 314.963 321.523 315.276C320.783 316.068 319.563 316.474 318.195 316.474C317.814 316.487 317.433 316.455 317.059 316.378V320.749H315.651L315.647 309.97ZM317.056 315.232C317.438 315.318 317.829 315.357 318.22 315.347C319.921 315.347 320.957 314.522 320.957 313.017C320.957 311.575 319.936 310.88 318.368 310.88C317.923 310.868 317.478 310.906 317.041 310.995L317.056 315.232Z" fill="#61481C"></path><path d="M324.13 309.256H325.553V320.752H324.13V309.256Z" fill="#61481C"></path><path d="M332.287 320.752L332.172 319.765H332.124C331.846 320.135 331.484 320.434 331.067 320.637C330.65 320.839 330.191 320.94 329.728 320.93C328.142 320.93 327.332 319.821 327.332 318.678C327.332 316.785 329.015 315.746 332.043 315.764V315.601C332.043 314.954 331.865 313.79 330.261 313.79C329.539 313.792 328.833 313.994 328.22 314.374L327.898 313.435C328.678 312.965 329.575 312.724 330.486 312.739C332.882 312.739 333.467 314.374 333.467 315.945V318.878C333.456 319.506 333.499 320.135 333.596 320.756L332.287 320.752ZM332.076 316.755C330.523 316.722 328.748 316.999 328.748 318.519C328.734 318.7 328.758 318.882 328.82 319.053C328.882 319.224 328.981 319.379 329.109 319.509C329.236 319.638 329.391 319.738 329.561 319.802C329.731 319.866 329.913 319.893 330.094 319.88C330.508 319.891 330.915 319.769 331.256 319.533C331.596 319.297 331.852 318.959 331.988 318.567C332.038 318.421 332.066 318.267 332.069 318.112L332.076 316.755Z" fill="#61481C"></path><path d="M335.896 320.753V314.001H334.787V312.917H335.896V312.547C335.896 311.438 336.14 310.443 336.802 309.811C337.319 309.325 338.004 309.06 338.714 309.072C339.128 309.07 339.54 309.147 339.926 309.297L339.73 310.407C339.445 310.282 339.136 310.221 338.825 310.229C337.612 310.229 337.305 311.298 337.305 312.496V312.917H339.198V314.001H337.305V320.753H335.896Z" fill="#61481C"></path><path d="M347.358 316.767C347.358 319.666 345.351 320.927 343.457 320.927C341.335 320.927 339.701 319.374 339.701 316.896C339.701 314.275 341.416 312.736 343.587 312.736C345.835 312.755 347.358 314.374 347.358 316.767ZM341.143 316.848C341.143 318.564 342.13 319.858 343.524 319.858C344.918 319.858 345.905 318.579 345.905 316.815C345.905 315.487 345.24 313.805 343.557 313.805C341.875 313.805 341.143 315.343 341.143 316.848Z" fill="#61481C"></path><path d="M349.152 315.036C349.152 314.226 349.152 313.557 349.086 312.913H350.346L350.428 314.207H350.461C350.717 313.748 351.093 313.368 351.549 313.107C352.005 312.846 352.524 312.715 353.049 312.728C354.133 312.728 355.819 313.376 355.819 316.056V320.734H354.395V316.234C354.395 314.969 353.926 313.919 352.584 313.919C352.151 313.926 351.732 314.071 351.388 314.333C351.044 314.596 350.793 314.961 350.672 315.376C350.603 315.591 350.571 315.816 350.576 316.042V320.752H349.152V315.036Z" fill="#61481C"></path><path d="M368.45 320.753C368.143 320.446 367.851 320.139 367.43 319.684C367.006 320.091 366.506 320.411 365.958 320.625C365.411 320.839 364.826 320.943 364.239 320.93C362.116 320.93 360.888 319.507 360.888 317.872C360.888 316.393 361.78 315.362 363.026 314.681V314.633C362.476 313.996 362.157 313.192 362.12 312.352C362.114 311.99 362.182 311.631 362.32 311.297C362.458 310.963 362.663 310.66 362.923 310.408C363.182 310.156 363.491 309.96 363.829 309.832C364.167 309.704 364.528 309.647 364.889 309.663C366.25 309.663 367.3 310.569 367.3 311.978C367.3 313.128 366.638 314.034 364.904 314.892V314.94C365.829 316.009 366.864 317.207 367.559 317.983C368.132 317.006 368.492 315.918 368.613 314.792H369.907C369.615 316.508 369.145 317.869 368.336 318.823C368.92 319.436 369.485 320.054 370.133 320.749L368.45 320.753ZM366.734 318.874C366.087 318.161 364.886 316.833 363.658 315.443C363.074 315.813 362.249 316.512 362.249 317.662C362.24 317.955 362.291 318.248 362.399 318.521C362.507 318.795 362.671 319.043 362.878 319.251C363.086 319.459 363.335 319.622 363.608 319.73C363.881 319.838 364.174 319.889 364.468 319.88C364.895 319.881 365.317 319.791 365.708 319.618C366.098 319.445 366.448 319.191 366.734 318.874ZM363.407 312.219C363.438 312.949 363.731 313.645 364.231 314.178C365.34 313.546 366.043 312.965 366.043 312.041C366.043 311.375 365.673 310.632 364.782 310.632C363.891 310.632 363.414 311.379 363.414 312.219H363.407Z" fill="#61481C"></path><path d="M376.042 320.753L373.272 309.841H374.751L376.06 315.343C376.385 316.704 376.674 318.064 376.87 319.115H376.903C377.081 318.031 377.421 316.733 377.794 315.324L379.251 309.822H380.73L382.058 315.369C382.365 316.663 382.657 317.957 382.819 319.107H382.853C383.078 317.909 383.389 316.696 383.725 315.335L385.167 309.833H386.61L383.518 320.745H382.039L380.664 315.062C380.361 313.889 380.122 312.7 379.95 311.501H379.917C379.699 312.702 379.418 313.891 379.074 315.062L377.521 320.745L376.042 320.753Z" fill="#61481C"></path><path d="M391.708 320.753L391.59 319.78H391.542C391.264 320.151 390.901 320.449 390.485 320.652C390.068 320.855 389.609 320.955 389.146 320.945C387.56 320.945 386.75 319.836 386.75 318.693C386.75 316.8 388.432 315.761 391.461 315.779V315.617C391.461 314.97 391.283 313.805 389.678 313.805C388.957 313.807 388.251 314.009 387.637 314.389L387.315 313.45C388.096 312.98 388.993 312.739 389.904 312.755C392.3 312.755 392.884 314.389 392.884 315.96V318.893C392.874 319.521 392.917 320.15 393.014 320.771L391.708 320.753ZM391.498 316.755C389.944 316.722 388.17 317 388.17 318.519C388.155 318.7 388.179 318.883 388.241 319.054C388.304 319.224 388.402 319.38 388.53 319.509C388.658 319.638 388.812 319.738 388.982 319.802C389.152 319.866 389.334 319.893 389.516 319.88C389.93 319.891 390.336 319.769 390.677 319.533C391.017 319.297 391.274 318.959 391.409 318.567C391.46 318.421 391.487 318.267 391.49 318.113L391.498 316.755Z" fill="#61481C"></path><path d="M395.169 309.256H396.593V320.752H395.169V309.256Z" fill="#61481C"></path><path d="M398.985 309.256H400.409V320.752H398.985V309.256Z" fill="#61481C"></path><path d="M415.484 315.961C415.403 314.437 415.307 312.611 415.321 311.25H415.273C414.904 312.529 414.449 313.89 413.898 315.395L411.971 320.69H410.903L409.139 315.495C408.621 313.956 408.185 312.537 407.874 311.253H407.86C407.826 312.614 407.745 314.441 407.649 316.06L407.357 320.738H406.011L406.772 309.826H408.57L410.418 315.103C410.873 316.445 411.243 317.643 411.528 318.778H411.576C411.849 317.669 412.238 316.478 412.726 315.103L414.667 309.826H416.464L417.144 320.738H415.769L415.484 315.961Z" fill="#61481C"></path><path d="M426.444 316.767C426.444 319.666 424.436 320.927 422.543 320.927C420.421 320.927 418.786 319.374 418.786 316.896C418.786 314.275 420.502 312.736 422.673 312.736C424.921 312.755 426.444 314.374 426.444 316.767ZM420.229 316.848C420.229 318.564 421.216 319.858 422.61 319.858C424.004 319.858 424.991 318.579 424.991 316.815C424.991 315.487 424.326 313.805 422.643 313.805C420.961 313.805 420.229 315.343 420.229 316.848Z" fill="#61481C"></path><path d="M434.797 318.616C434.797 319.426 434.797 320.136 434.864 320.753H433.599L433.518 319.474H433.485C433.22 319.923 432.841 320.295 432.387 320.551C431.932 320.807 431.418 320.938 430.896 320.931C429.665 320.931 428.193 320.25 428.193 317.499V312.918H429.617V317.255C429.617 318.734 430.072 319.748 431.366 319.748C431.631 319.748 431.893 319.696 432.138 319.594C432.383 319.493 432.605 319.343 432.792 319.155C432.979 318.967 433.126 318.744 433.226 318.498C433.326 318.253 433.376 317.99 433.374 317.725V312.918H434.797V318.616Z" fill="#61481C"></path><path d="M437.156 309.256H438.58V320.752H437.156V309.256Z" fill="#61481C"></path><path d="M447.742 309.256V318.726C447.742 319.421 447.742 320.205 447.809 320.749H446.53L446.463 319.388H446.43C446.174 319.869 445.788 320.269 445.316 320.541C444.844 320.813 444.305 320.947 443.76 320.926C441.867 320.926 440.41 319.325 440.41 316.944C440.41 314.355 442.015 312.736 443.923 312.736C444.387 312.708 444.851 312.804 445.267 313.014C445.682 313.225 446.034 313.542 446.286 313.934H446.319V309.256H447.742ZM446.315 316.104C446.317 315.903 446.295 315.702 446.248 315.505C446.148 315.036 445.888 314.615 445.514 314.314C445.139 314.013 444.673 313.85 444.193 313.853C442.714 313.853 441.845 315.147 441.845 316.881C441.845 318.467 442.621 319.78 444.159 319.78C444.65 319.779 445.125 319.609 445.505 319.299C445.885 318.99 446.148 318.559 446.248 318.079C446.296 317.878 446.319 317.672 446.315 317.465V316.104Z" fill="#61481C"></path><path d="M451.692 310.713C451.677 310.937 451.578 311.147 451.414 311.301C451.251 311.455 451.034 311.54 450.81 311.54C450.585 311.54 450.369 311.455 450.206 311.301C450.042 311.147 449.943 310.937 449.928 310.713C449.925 310.595 449.946 310.478 449.99 310.369C450.033 310.259 450.099 310.16 450.182 310.076C450.266 309.993 450.365 309.928 450.475 309.884C450.584 309.84 450.701 309.819 450.819 309.822C450.936 309.818 451.053 309.839 451.162 309.883C451.271 309.926 451.369 309.992 451.451 310.076C451.533 310.16 451.597 310.26 451.638 310.369C451.68 310.479 451.698 310.596 451.692 310.713ZM450.106 320.753V312.917H451.529V320.753H450.106Z" fill="#61481C"></path><path d="M453.896 315.036C453.896 314.226 453.896 313.557 453.829 312.913H455.09L455.171 314.207H455.205C455.46 313.748 455.836 313.368 456.293 313.107C456.749 312.846 457.268 312.715 457.793 312.728C458.876 312.728 460.563 313.376 460.563 316.056V320.734H459.139V316.234C459.139 314.969 458.669 313.919 457.327 313.919C456.895 313.926 456.476 314.071 456.132 314.333C455.788 314.596 455.537 314.961 455.415 315.376C455.347 315.591 455.314 315.816 455.319 316.042V320.752H453.896V315.036Z" fill="#61481C"></path><path d="M469.611 312.917C469.577 313.483 469.548 314.115 469.548 315.069V319.617C469.548 321.414 469.178 322.516 468.438 323.197C467.699 323.877 466.59 324.136 465.588 324.136C464.682 324.156 463.788 323.932 462.999 323.489L463.369 322.405C464.065 322.816 464.861 323.028 465.669 323.019C467.126 323.019 468.194 322.257 468.194 320.283V319.41H468.132C467.869 319.83 467.5 320.172 467.063 320.403C466.625 320.634 466.134 320.744 465.639 320.723C463.698 320.723 462.311 319.07 462.311 316.903C462.311 314.248 464.042 312.743 465.839 312.743C466.334 312.712 466.827 312.824 467.261 313.065C467.694 313.306 468.049 313.667 468.283 314.104H468.316L468.383 312.921L469.611 312.917ZM468.132 316.008C468.14 315.79 468.112 315.571 468.05 315.361C467.93 314.927 467.67 314.544 467.31 314.272C466.951 314 466.512 313.854 466.061 313.856C464.7 313.856 463.731 315.006 463.731 316.815C463.731 318.353 464.508 319.632 466.046 319.632C466.487 319.63 466.916 319.487 467.271 319.226C467.626 318.964 467.888 318.596 468.021 318.175C468.098 317.929 468.137 317.672 468.135 317.414L468.132 316.008Z" fill="#61481C"></path></svg>