<svg xmlns="http://www.w3.org/2000/svg" width="500" height="500" viewBox="0 0 500 500" fill="none"><rect width="500" height="500" fill="white"></rect><path d="M90.8823 228.68H102.816V272.71H91.6988L73.0441 248.214V272.71H61.0474V228.68H72.2276L90.8823 253.239V228.68ZM131.722 227.863C136.244 227.863 140.327 228.847 143.97 230.815C147.655 232.784 150.523 235.505 152.575 238.981C154.668 242.414 155.715 246.288 155.715 250.601C155.715 254.956 154.668 258.892 152.575 262.409C150.523 265.885 147.655 268.627 143.97 270.637C140.327 272.605 136.244 273.589 131.722 273.589C127.157 273.589 123.054 272.605 119.411 270.637C115.768 268.627 112.9 265.885 110.806 262.409C108.754 258.892 107.728 254.956 107.728 250.601C107.728 246.288 108.754 242.414 110.806 238.981C112.9 235.505 115.768 232.784 119.411 230.815C123.054 228.847 127.157 227.863 131.722 227.863ZM131.91 238.73C129.984 238.73 128.183 239.253 126.508 240.3C124.875 241.347 123.556 242.791 122.551 244.634C121.588 246.434 121.107 248.444 121.107 250.664C121.107 252.883 121.588 254.914 122.551 256.756C123.556 258.599 124.875 260.064 126.508 261.153C128.183 262.2 129.984 262.723 131.91 262.723C133.794 262.723 135.532 262.2 137.123 261.153C138.756 260.064 140.034 258.62 140.955 256.819C141.876 254.977 142.337 252.925 142.337 250.664C142.337 248.444 141.876 246.434 140.955 244.634C140.034 242.791 138.777 241.347 137.186 240.3C135.595 239.253 133.836 238.73 131.91 238.73ZM156.092 228.68H170.035L180.085 259.143L190.135 228.68H203.513L186.492 272.71H172.925L156.092 228.68ZM235.574 272.71L232.998 265.675H215.223L212.585 272.71H199.144L217.924 228.68H231.365L249.517 272.71H235.574ZM218.866 256.128H229.544L224.268 241.744L218.866 256.128ZM284.324 242.875C281.979 241.493 279.404 240.321 276.599 239.358C273.793 238.395 271.49 237.913 269.689 237.913C268.559 237.913 267.659 238.143 266.989 238.604C266.36 239.023 266.046 239.651 266.046 240.488C266.046 241.661 266.675 242.582 267.931 243.252C269.187 243.88 271.176 244.571 273.898 245.325C276.996 246.204 279.551 247.104 281.561 248.026C283.57 248.905 285.308 250.266 286.774 252.108C288.281 253.951 289.035 256.379 289.035 259.394C289.035 262.451 288.218 265.047 286.585 267.183C284.994 269.276 282.817 270.847 280.053 271.893C277.331 272.94 274.275 273.464 270.883 273.464C267.114 273.464 263.325 272.836 259.514 271.579C255.746 270.281 252.479 268.523 249.716 266.303L254.615 256.379C256.834 258.305 259.535 259.939 262.717 261.278C265.942 262.577 268.705 263.226 271.008 263.226C272.432 263.226 273.542 262.953 274.337 262.409C275.133 261.865 275.531 261.09 275.531 260.085C275.531 258.871 274.882 257.95 273.584 257.321C272.286 256.651 270.276 255.961 267.554 255.249C264.497 254.453 261.964 253.637 259.954 252.799C257.944 251.92 256.206 250.58 254.741 248.779C253.275 246.979 252.542 244.613 252.542 241.682C252.542 238.834 253.296 236.364 254.803 234.27C256.311 232.135 258.425 230.501 261.147 229.371C263.911 228.24 267.114 227.675 270.757 227.675C274.065 227.675 277.352 228.157 280.618 229.12C283.885 230.041 286.732 231.276 289.161 232.825L284.324 242.875ZM293.826 228.68H306.89V272.71H293.826V228.68Z" fill="#5C59C2"></path><path d="M375.113 228.743H379.635L357.589 272.71H353.129L347.225 234.333L328.445 272.71H323.985L316.511 228.743H321.222L327.126 268.062L345.969 228.806L350.303 228.743L356.27 268.062L375.113 228.743ZM415.231 232.763H390.107L386.967 248.402H409.39L408.573 252.359H386.15L382.884 268.753H408.762L408.008 272.71H377.796L386.59 228.743H415.985L415.231 232.763ZM447.477 249.659C450.115 250.077 452.146 251.082 453.57 252.673C455.036 254.265 455.768 256.275 455.768 258.703C455.768 261.551 455.015 264.042 453.507 266.178C452 268.271 449.843 269.883 447.038 271.014C444.232 272.145 440.966 272.71 437.239 272.71H418.647L427.441 228.743H445.782C449.634 228.743 452.607 229.538 454.701 231.13C456.836 232.721 457.904 234.94 457.904 237.787C457.904 240.802 456.962 243.398 455.077 245.576C453.193 247.711 450.66 249.072 447.477 249.659ZM453.319 238.981C453.319 237.013 452.586 235.484 451.12 234.396C449.655 233.307 447.561 232.763 444.839 232.763H430.958L427.881 248.088H441.699C445.258 248.088 448.085 247.272 450.178 245.639C452.272 244.006 453.319 241.786 453.319 238.981ZM437.553 268.753C441.866 268.753 445.237 267.895 447.666 266.178C450.094 264.419 451.309 262.011 451.309 258.955C451.309 256.735 450.409 255.039 448.608 253.867C446.849 252.653 444.316 252.045 441.008 252.045H427.064L423.735 268.753H437.553Z" fill="#1E1E1E"></path><path d="M50.9456 255.636C48.9892 257.431 49.1184 259.226 51.3147 261.037C51.4623 261.167 51.6285 261.282 51.7946 261.412C51.8315 261.445 51.8684 261.477 51.9238 261.51C53.2526 262.669 54.0647 264.284 54.0647 266.079C54.0647 269.636 50.7979 272.524 46.7744 272.524C42.7509 272.524 39.5026 269.636 39.5026 266.079C39.5026 264.284 40.3147 262.669 41.6435 261.51C41.6804 261.477 41.7174 261.445 41.7727 261.412C41.9388 261.282 42.1049 261.167 42.2526 261.037C44.4489 259.242 44.5781 257.447 42.6217 255.636C40.7392 254.494 39.521 252.585 39.4841 250.415C39.4841 250.382 39.4841 250.366 39.4841 250.333C39.4841 250.284 39.4841 250.219 39.4841 250.17C39.521 248 40.7392 246.107 42.6217 244.948C44.5781 243.154 44.4489 241.359 42.2526 239.548C42.1049 239.417 41.9388 239.303 41.7727 239.172C41.7358 239.14 41.6989 239.107 41.6435 239.074C40.3147 237.9 39.5026 236.301 39.5026 234.506C39.5026 230.949 42.7694 228.061 46.7929 228.061C50.8164 228.061 54.0832 230.949 54.0832 234.506C54.0832 236.301 53.2711 237.9 51.9422 239.074C51.9053 239.107 51.8684 239.14 51.813 239.172C51.6469 239.303 51.4808 239.417 51.3331 239.548C49.1368 241.342 49.0076 243.154 50.964 244.948C52.8466 246.091 54.0647 248 54.1016 250.17C54.1016 250.219 54.1016 250.284 54.1016 250.333C54.1016 250.366 54.1016 250.382 54.1016 250.415C54.0462 252.585 52.8097 254.478 50.9456 255.636Z" fill="#5C59C2"></path></svg>