<svg xmlns="http://www.w3.org/2000/svg" width="387" height="69" viewBox="0 0 387 69" fill="none"><path d="M45.884 15.2544H56.4808V54.3511H46.6091L30.0446 32.5997V54.3511H19.392V15.2544H29.3196L45.884 37.0616V15.2544ZM82.1476 14.5294C86.1632 14.5294 89.7884 15.4032 93.0233 17.1507C96.2953 18.8983 98.8422 21.3151 100.664 24.4012C102.523 27.4501 103.453 30.8894 103.453 34.7191C103.453 38.586 102.523 42.0811 100.664 45.2044C98.8422 48.2904 96.2953 50.7259 93.0233 52.5106C89.7884 54.2581 86.1632 55.1319 82.1476 55.1319C78.0948 55.1319 74.451 54.2581 71.2162 52.5106C67.9813 50.7259 65.4344 48.2904 63.5753 45.2044C61.7534 42.0811 60.8424 38.586 60.8424 34.7191C60.8424 30.8894 61.7534 27.4501 63.5753 24.4012C65.4344 21.3151 67.9813 18.8983 71.2162 17.1507C74.451 15.4032 78.0948 14.5294 82.1476 14.5294ZM82.3149 24.1781C80.6045 24.1781 79.0057 24.6428 77.5185 25.5724C76.0684 26.5019 74.8971 27.7847 74.0048 29.4207C73.1496 31.0195 72.722 32.8042 72.722 34.7749C72.722 36.7455 73.1496 38.5488 74.0048 40.1848C74.8971 41.8208 76.0684 43.1222 77.5185 44.0889C79.0057 45.0184 80.6045 45.4832 82.3149 45.4832C83.9881 45.4832 85.5311 45.0184 86.944 44.0889C88.3941 43.1222 89.5282 41.8394 90.3462 40.2406C91.1642 38.6046 91.5732 36.7827 91.5732 34.7749C91.5732 32.8042 91.1642 31.0195 90.3462 29.4207C89.5282 27.7847 88.4127 26.5019 86.9998 25.5724C85.5869 24.6428 84.0253 24.1781 82.3149 24.1781ZM103.787 15.2544H116.168L125.092 42.3042L134.016 15.2544H145.895L130.781 54.3511H118.734L103.787 15.2544ZM174.363 54.3511L172.077 48.1045H156.293L153.951 54.3511H142.015L158.691 15.2544H170.627L186.745 54.3511H174.363ZM159.528 39.6271H169.009L164.324 26.8552L159.528 39.6271ZM217.652 27.8591C215.569 26.6321 213.283 25.591 210.792 24.7358C208.3 23.8806 206.255 23.453 204.657 23.453C203.653 23.453 202.853 23.6575 202.258 24.0665C201.701 24.4383 201.422 24.9961 201.422 25.7397C201.422 26.7808 201.979 27.5988 203.095 28.1937C204.21 28.7514 205.977 29.3649 208.393 30.0342C211.145 30.815 213.413 31.6144 215.198 32.4324C216.982 33.2132 218.525 34.4216 219.827 36.0576C221.165 37.6936 221.835 39.8502 221.835 42.5273C221.835 45.2415 221.11 47.5468 219.659 49.4431C218.247 51.3022 216.313 52.6965 213.859 53.626C211.442 54.5556 208.728 55.0203 205.716 55.0203C202.37 55.0203 199.005 54.4626 195.621 53.3472C192.275 52.1945 189.375 50.6329 186.921 48.6623L191.271 39.8502C193.242 41.5605 195.64 43.0106 198.466 44.2005C201.329 45.3531 203.783 45.9294 205.828 45.9294C207.092 45.9294 208.077 45.6877 208.784 45.2044C209.49 44.721 209.843 44.0331 209.843 43.1408C209.843 42.0625 209.267 41.2445 208.114 40.6868C206.962 40.0919 205.177 39.4784 202.76 38.8463C200.046 38.1398 197.797 37.4148 196.012 36.6711C194.227 35.8903 192.684 34.7005 191.383 33.1017C190.081 31.5029 189.431 29.4021 189.431 26.7994C189.431 24.271 190.1 22.0773 191.438 20.2182C192.777 18.3219 194.655 16.8718 197.071 15.8679C199.525 14.864 202.37 14.3621 205.605 14.3621C208.542 14.3621 211.461 14.7897 214.361 15.6449C217.261 16.4629 219.79 17.5597 221.946 18.9354L217.652 27.8591ZM226.089 15.2544H237.689V54.3511H226.089V15.2544Z" fill="#5C59C2"></path><path d="M310.032 15.3102H314.048L294.472 54.3511H290.512L285.269 20.274L268.593 54.3511H264.634L257.997 15.3102H262.18L267.422 50.2239L284.154 15.366L288.002 15.3102L293.301 50.2239L310.032 15.3102ZM345.656 18.8797H323.346L320.558 32.7671H340.469L339.744 36.2807H319.833L316.933 50.8374H339.911L339.242 54.3511H312.415L320.223 15.3102H346.325L345.656 18.8797ZM374.289 33.8825C376.631 34.2543 378.434 35.1467 379.699 36.5596C381 37.9725 381.651 39.7572 381.651 41.9138C381.651 44.4421 380.981 46.6544 379.643 48.5507C378.304 50.4098 376.389 51.8413 373.898 52.8452C371.407 53.8491 368.507 54.3511 365.198 54.3511H348.689L356.497 15.3102H372.783C376.204 15.3102 378.843 16.0167 380.703 17.4296C382.599 18.8425 383.547 20.8131 383.547 23.3415C383.547 26.0186 382.71 28.3238 381.037 30.2573C379.364 32.1536 377.114 33.362 374.289 33.8825ZM379.476 24.4012C379.476 22.6536 378.825 21.2965 377.523 20.3298C376.222 19.363 374.363 18.8797 371.946 18.8797H359.62L356.888 32.4882H369.158C372.318 32.4882 374.828 31.7631 376.687 30.3131C378.546 28.863 379.476 26.8923 379.476 24.4012ZM365.477 50.8374C369.306 50.8374 372.299 50.0752 374.456 48.5507C376.613 46.9891 377.691 44.8511 377.691 42.1369C377.691 40.1662 376.891 38.6604 375.293 37.6193C373.731 36.541 371.481 36.0019 368.544 36.0019H356.163L353.207 50.8374H365.477Z" fill="#2A2A2A"></path><path d="M10.051 39.39C8.48874 40.98 8.5919 42.5701 10.3457 44.1746C10.4637 44.2903 10.5963 44.3914 10.7289 44.5071C10.7584 44.536 10.7879 44.5649 10.8321 44.5938C11.8933 45.6201 12.5417 47.0512 12.5417 48.6413C12.5417 51.7925 9.93308 54.351 6.72015 54.351C3.50722 54.351 0.913298 51.7925 0.913298 48.6413C0.913298 47.0512 1.56178 45.6201 2.62293 44.5938C2.65241 44.5649 2.68188 44.536 2.7261 44.5071C2.85874 44.3914 2.99138 44.2903 3.10929 44.1746C4.86314 42.5846 4.9663 40.9945 3.40405 39.39C1.90076 38.3781 0.928036 36.6869 0.89856 34.7643C0.89856 34.7354 0.89856 34.721 0.89856 34.6921C0.89856 34.6487 0.89856 34.5909 0.89856 34.5475C0.928036 32.625 1.90076 30.9482 3.40405 29.9219C4.9663 28.3318 4.86314 26.7417 3.10929 25.1372C2.99138 25.0216 2.85874 24.9204 2.7261 24.8048C2.69662 24.7758 2.66714 24.7469 2.62293 24.718C1.56178 23.6773 0.913298 22.2607 0.913298 20.6706C0.913298 17.5194 3.52196 14.9608 6.73489 14.9608C9.94782 14.9608 12.5565 17.5194 12.5565 20.6706C12.5565 22.2607 11.908 23.6773 10.8468 24.718C10.8174 24.7469 10.7879 24.7758 10.7437 24.8048C10.611 24.9204 10.4784 25.0216 10.3605 25.1372C8.60664 26.7273 8.50348 28.3318 10.0657 29.9219C11.569 30.9337 12.5417 32.625 12.5712 34.5475C12.5712 34.5909 12.5712 34.6487 12.5712 34.6921C12.5712 34.721 12.5712 34.7354 12.5712 34.7643C12.527 36.6869 11.5395 38.3637 10.051 39.39Z" fill="#5C59C2"></path></svg>